<?xml version="1.0" encoding="utf-8"?>
<!-- Generator: Adobe Illustrator 16.0.0, SVG Export Plug-In . SVG Version: 6.00 Build 0)  -->
<!DOCTYPE svg PUBLIC "-//W3C//DTD SVG 1.1//EN" "http://www.w3.org/Graphics/SVG/1.1/DTD/svg11.dtd">
<svg version="1.1" id="Layer_1" xmlns="http://www.w3.org/2000/svg" xmlns:xlink="http://www.w3.org/1999/xlink" x="0px" y="0px"
	 width="250px" height="250px" viewBox="-97.25 -97.25 250 250" enable-background="new -97.25 -97.25 250 250"
	 xml:space="preserve">
<path d="M128.98-90.641c0-2.038-1.668-3.708-3.709-3.708c-2.036,0-3.705,1.67-3.705,3.708c0,2.037,1.669,3.707,3.705,3.707
	C127.313-86.934,128.98-88.579,128.98-90.641 M120.217-81.999c0-2.038-1.67-3.707-3.707-3.707c-2.063,0-3.709,1.669-3.709,3.707
	c0,2.04,1.671,3.707,3.709,3.707C118.547-78.266,120.217-79.937,120.217-81.999 M80.15-41.93c0-2.039-1.672-3.708-3.71-3.708
	c-2.063,0-3.705,1.668-3.705,3.708c0,2.063,1.67,3.708,3.705,3.708C78.479-38.199,80.15-39.868,80.15-41.93 M141.158-60.909
	c0-2.038-1.669-3.707-3.705-3.707c-2.037,0-3.707,1.668-3.707,3.707s1.67,3.708,3.707,3.708
	C139.489-57.201,141.158-58.871,141.158-60.909 M149.925-69.697c0-2.064-1.67-3.708-3.706-3.708c-2.039,0-3.708,1.671-3.708,3.708
	c0,2.036,1.669,3.707,3.708,3.707C148.255-65.967,149.925-67.636,149.925-69.697 M-68.241,123.693
	c0.467,0.469,0.736,1.105,0.736,1.743c0,1.378-1.103,2.48-2.478,2.48c-0.664,0-1.278-0.269-1.744-0.735l0,0
	c-0.467-0.468-0.739-1.106-0.739-1.745c0-1.374,1.108-2.479,2.483-2.479C-69.321,122.982-68.708,123.227-68.241,123.693
	L-68.241,123.693z M-89.872,83.454c-0.466-0.468-0.738-1.081-0.738-1.741c0-1.378,1.106-2.483,2.481-2.483
	c0.663,0,1.276,0.272,1.743,0.714l0,0c0.467,0.467,0.712,1.104,0.712,1.741c0,1.377-1.106,2.482-2.48,2.482
	C-88.768,84.167-89.405,83.92-89.872,83.454L-89.872,83.454z M-24.465,141.813c0.467,0.467,0.737,1.107,0.737,1.743
	c0,1.376-1.106,2.481-2.479,2.481c-0.663,0-1.276-0.271-1.745-0.74l0,0c-0.466-0.462-0.71-1.102-0.71-1.741
	c0-1.375,1.104-2.479,2.477-2.479C-25.546,141.101-24.933,141.372-24.465,141.813L-24.465,141.813z M-71.727,39.703
	c-0.467-0.464-0.739-1.105-0.739-1.743c0-1.373,1.108-2.478,2.483-2.478c0.662,0,1.275,0.27,1.742,0.71l0,0
	c0.467,0.466,0.736,1.104,0.736,1.745c0,1.374-1.103,2.479-2.478,2.479C-70.646,40.416-71.261,40.145-71.727,39.703L-71.727,39.703z
	 M19.309,123.693c0.467,0.469,0.737,1.105,0.737,1.743c0,1.378-1.105,2.48-2.481,2.48c-0.662,0-1.276-0.269-1.743-0.735l0,0
	c-0.466-0.468-0.736-1.106-0.736-1.745c0-1.374,1.104-2.479,2.479-2.479C18.205,122.982,18.843,123.227,19.309,123.693
	L19.309,123.693z M-19.85,101.573l-6.998,6.997l-26.271-26.244l6.998-6.998L-19.85,101.573z M-27.977,21.56
	c-0.465-0.466-0.711-1.104-0.711-1.744c0-1.375,1.105-2.479,2.48-2.479c0.662,0,1.275,0.269,1.743,0.711l0,0
	c0.467,0.468,0.737,1.104,0.737,1.744c0,1.375-1.106,2.479-2.479,2.479C-26.871,22.296-27.511,22.026-27.977,21.56L-27.977,21.56z
	 M37.43,79.943c0.465,0.467,0.736,1.104,0.736,1.741c0,1.377-1.106,2.482-2.479,2.482c-0.664,0-1.279-0.247-1.744-0.713l0,0
	c-0.467-0.468-0.738-1.081-0.738-1.741c0-1.378,1.107-2.483,2.481-2.483C36.351,79.207,36.963,79.478,37.43,79.943L37.43,79.943z
	 M-55.425,123.178l12.103-6.554l-17.825-17.823l-6.578,12.104c-6.015-8.546-9.256-18.733-9.256-29.191
	c0-28.015,22.733-50.751,50.748-50.751c28.014,0,50.749,22.737,50.749,50.751c0,28.009-22.735,50.746-50.749,50.746
	C-36.667,132.434-46.882,129.219-55.425,123.178L-55.425,123.178z M26.797,40.954c8.987,11.687,13.85,26.001,13.85,40.73
	c0,36.878-29.955,66.832-66.855,66.832c-36.902,0-66.855-29.954-66.855-66.832c0-36.899,29.953-66.828,66.855-66.828
	c14.73,0,29.068,4.863,40.753,13.847l0,0l-3.534,3.536C1.632,25.193-9.563,20.947-21.25,20.012l0,0
	c-0.097,2.653-2.283,4.764-4.958,4.764c-2.652,0-4.837-2.086-4.959-4.764l0,0c-12.964,1.032-25.289,6.139-35.183,14.56l0,0
	c0.834,0.91,1.301,2.11,1.301,3.364c0,2.726-2.21,4.958-4.96,4.958c-1.252,0-2.457-0.466-3.363-1.301l0,0
	c-8.446,9.893-13.528,22.196-14.584,35.157l0,0c2.652,0.1,4.763,2.281,4.763,4.934c0,2.653-2.086,4.841-4.763,4.938l0,0
	c1.031,12.965,6.138,25.264,14.584,35.181l0,0c0.907-0.836,2.111-1.299,3.363-1.299c2.725,0,4.96,2.21,4.96,4.958
	c0,1.252-0.467,2.455-1.301,3.366l0,0c9.895,8.419,22.219,13.527,35.183,14.559l0,0c0.096-2.653,2.282-4.765,4.959-4.765
	c2.651,0,4.835,2.111,4.958,4.765l0,0c12.964-1.031,25.288-6.14,35.183-14.559l0,0c-0.834-0.911-1.301-2.114-1.301-3.366
	c0-2.725,2.209-4.958,4.96-4.958c1.251,0,2.455,0.463,3.363,1.299l0,0c8.447-9.893,13.528-22.193,14.584-35.181l0,0
	c-2.651-0.097-4.764-2.284-4.764-4.938c0-2.652,2.086-4.834,4.764-4.934l0,0c-0.934-11.686-5.183-22.883-12.227-32.26l0,0
	L26.797,40.954z M132.835-92.949c-3.731,8.274-10.336,14.879-18.609,18.609l0,0c0.078,0.984,0.246,1.939,0.517,2.898l0,0
	L16.29,26.936C4.137,17.509-10.839,12.378-26.233,12.378c-38.252,0.023-69.31,31.056-69.31,69.307
	c0,38.253,31.058,69.312,69.335,69.312c38.274,0,69.333-31.059,69.333-69.312c0-15.392-5.13-30.344-14.56-42.497l0,0l98.429-98.402
	c0.954,0.246,1.913,0.417,2.898,0.515l0,0c3.729-8.272,10.332-14.877,18.608-18.61l0,0
	C147.785-85.631,141.158-92.236,132.835-92.949L132.835-92.949z"/>
</svg>
