<?xml version="1.0" encoding="utf-8"?>
<!-- Generator: Adobe Illustrator 16.0.0, SVG Export Plug-In . SVG Version: 6.00 Build 0)  -->
<!DOCTYPE svg PUBLIC "-//W3C//DTD SVG 1.1//EN" "http://www.w3.org/Graphics/SVG/1.1/DTD/svg11.dtd">
<svg version="1.1" id="Your_Icon" xmlns="http://www.w3.org/2000/svg" xmlns:xlink="http://www.w3.org/1999/xlink" x="0px" y="0px"
	 width="250px" height="250px" viewBox="-75 -75 250 250" enable-background="new -75 -75 250 250" xml:space="preserve">
<path d="M85.439,107.476c-1.463-3.042-1.854-5.496-1.168-7.28c0.331-0.852,0.839-1.358,1.208-1.632
	c-0.198-0.321-0.396-0.646-0.543-0.868c-1.183,0.597-2.322,0.904-3.381,0.904c-3.5,0-6.284-3.305-8.035-9.557
	c-1.425-5.092-1.719-10.354-1.719-11.479c0-0.133,0-0.282,0.029-0.423c-0.335-4.423,0.355-7.608,2.073-9.464
	c1.103-1.194,2.628-1.828,4.412-1.828c0.69,0,1.285,0.102,1.67,0.184l0.314-1.024c-1.729-1.532-2.476-3.579-2.161-5.948
	c0.23-1.66,0.896-2.938,1.052-3.207c3.857-12.702,3.205-22.666-1.949-29.617c-5.857-7.905-16.208-10.13-22.573-10.724l-1.876-52.702
	h1.583c0.109-4.229,0-7.827-0.225-10.843h6.399c0,0,0,2.403,1.695,2.223c0,0,4.529,0.361,4.616-3.112
	c-0.292-3.2-4.616-2.861-4.616-2.861c-1.695-0.176-1.695,2.225-1.695,2.225h-6.525c-0.207-2.167-0.466-4-0.734-5.502h6.308
	c0,0,0,2.404,1.692,2.226c0,0,4.529,0.358,4.611-3.109c-0.289-3.205-4.611-2.863-4.611-2.863c-1.692-0.179-1.692,2.224-1.692,2.224
	h-6.603c-0.58-2.732-1.117-4.005-1.117-4.005h1.158l-0.09-2.222c3.384,1.156,2.315-4.27,2.315-4.27h-2.044l-0.624-1.958h-1.247
	l-0.36-3.467h-3.591l-0.357,3.467h-1.244l-0.626,1.958h-2.045c0,0-1.07,5.425,2.317,4.27l-0.094,2.222h1.156
	c0,0-0.962,2.291-1.705,7.349h-6.61c0,0,0-2.401-1.688-2.223c0,0-4.321-0.341-4.619,2.862c0.09,3.467,4.619,3.108,4.619,3.108
	c1.688,0.179,1.688-2.222,1.688-2.222h6.408c-0.236,1.958-0.438,4.265-0.542,6.935h-6.346c0,0,0-2.401-1.687-2.222
	c0,0-4.324-0.344-4.617,2.861c0.084,3.467,4.617,3.108,4.617,3.108c1.687,0.179,1.687-2.222,1.687-2.222h6.296
	c-0.047,1.859-0.047,3.875,0.013,6.064h1.643L43.986,15.49c-6.332,0.559-16.897,2.731-22.842,10.747
	c-5.146,6.951-5.804,16.912-1.948,29.617c0.156,0.27,0.824,1.547,1.052,3.207c0.317,2.369-0.429,4.416-2.161,5.948l0.314,1.024
	c0.386-0.082,0.978-0.184,1.67-0.184c1.245,0,3.022,0.319,4.414,1.828c1.715,1.855,2.409,5.041,2.064,9.464
	c0.027,0.141,0.027,0.29,0.027,0.423c0,1.129-0.292,6.387-1.718,11.479c-1.752,6.252-4.529,9.557-8.034,9.557
	c-1.061,0-2.197-0.308-3.377-0.904c-0.149,0.223-0.347,0.547-0.548,0.868c0.374,0.273,0.877,0.78,1.207,1.632
	c0.69,1.785,0.298,4.238-1.157,7.268c-0.118,0.229-11.137,22.176-2.166,38.089c5.475,9.711,17.188,15.261,34.826,16.513h2.773v2.535
	h-1.821l-0.874-1.912h-1.235l-0.72,2.229l0.72,2.316h1.235l0.874-1.833h1.821v3.703h-0.636c0,0-0.401,5.418,0.956,5.897h0.9
	c1.353-0.479,0.956-5.897,0.956-5.897h-0.637v-7.038l2.86-0.005c17.625-1.247,29.339-6.802,34.809-16.508
	C96.577,129.636,85.55,107.691,85.439,107.476z M38.303,82.855c-0.814,0-1.473-0.629-1.473-1.395c0-0.771,0.658-1.39,1.473-1.39
	c0.161,0,0.314,0.029,0.46,0.069c-0.846-0.915-2.068-1.814-3.046-0.789c0,0-2.789,2.226-2.394,12.983c0,0,1.438,0.877,0,1.191
	c0,0,0.829,12.665-7.329,12.665c0,0-2.712,0.413-3.826-3.328c-0.042-0.155,0.005-0.29,0.005-0.459c0-1.03,0.839-1.871,1.876-1.871
	c1.032,0,1.869,0.841,1.869,1.871c0,0.851-0.564,1.552-1.333,1.788c0.449,0.981,1.325,2.323,2.447,1.363
	c0,0,4.381-1.911,3.823-13.146c0,0-0.876-0.639,0.157-0.877c0,0-1.319-13.243,5.577-13.243c0,0,3.189-0.464,3.189,3.166
	C39.775,82.232,39.118,82.855,38.303,82.855z M53.591,122.349c0,0-2.543,5.96-2.461,14.612c0,0,0,4.132,0.793,14.537
	c0,0,0.682,4.523-2.785,4.523c-3.412,0-2.782-4.523-2.782-4.523c0.794-10.405,0.794-14.537,0.794-14.537
	c0.082-8.652-2.461-14.612-2.461-14.612c-3.018-8.967-1.826-11.512-1.826-11.512h1.317l-0.725-19.203l3.349-145.619
	c0.005-0.208,0.182-0.383,0.391-0.383c0.221,0,0.394,0.178,0.389,0.396L44.238,91.634l0.725,19.206h2.279l-0.135-19.21
	l1.019-145.607c0-0.213,0.171-0.388,0.386-0.391c0.218,0,0.391,0.173,0.397,0.389L47.889,91.63l0.135,19.21h2.281l0.453-19.221
	L49.448-53.97c-0.005-0.104,0.038-0.199,0.109-0.276c0.071-0.074,0.168-0.118,0.271-0.118c0.241,0.021,0.397,0.182,0.402,0.38
	l1.311,145.604l-0.454,19.221h2.279l1.044-19.234L50.772-53.959c-0.005-0.101,0.029-0.203,0.104-0.28
	c0.066-0.077,0.162-0.122,0.269-0.124c0.005,0,0.005,0,0.005,0c0.222,0,0.392,0.166,0.396,0.376l3.64,145.601l-1.039,19.229h1.262
	C55.413,110.834,56.607,113.377,53.591,122.349z M76.198,102.863c-1.116,3.741-3.83,3.328-3.83,3.328
	c-8.157,0-7.328-12.665-7.328-12.665c-1.434-0.316,0-1.191,0-1.191c0.394-10.758-2.389-12.983-2.389-12.983
	c-0.983-1.025-2.201-0.126-3.053,0.789c0.15-0.043,0.3-0.069,0.467-0.069c0.812,0,1.47,0.619,1.47,1.39
	c0,0.771-0.658,1.395-1.47,1.395c-0.814,0-1.472-0.629-1.472-1.395c0-3.631,3.181-3.164,3.181-3.164
	c6.898,0,5.578,13.243,5.578,13.243c1.035,0.236,0.155,0.875,0.155,0.875c-0.562,11.23,3.82,13.146,3.82,13.146
	c1.129,0.961,2.004-0.38,2.453-1.364c-0.772-0.237-1.334-0.937-1.334-1.788c0-1.029,0.839-1.87,1.871-1.87
	c1.035,0,1.87,0.841,1.87,1.87C76.188,102.573,76.232,102.708,76.198,102.863z"/>
</svg>
