<?xml version="1.0" encoding="utf-8"?>
<!-- Generator: Adobe Illustrator 16.0.0, SVG Export Plug-In . SVG Version: 6.00 Build 0)  -->
<!DOCTYPE svg PUBLIC "-//W3C//DTD SVG 1.1//EN" "http://www.w3.org/Graphics/SVG/1.1/DTD/svg11.dtd">
<svg version="1.1" id="Your_Icon" xmlns="http://www.w3.org/2000/svg" xmlns:xlink="http://www.w3.org/1999/xlink" x="0px" y="0px"
	 width="250px" height="250px" viewBox="-75 -75 250 250" enable-background="new -75 -75 250 250" xml:space="preserve">
<g>
	<circle cx="51.816" cy="49.806" r="3.335"/>
	<circle cx="62.773" cy="38.845" r="3.335"/>
	<path d="M164.651-70.95c-0.132,0.129-0.2,0.288-0.227,0.455L149.43-55.497c-1.41,0.084-2.801,0.663-3.879,1.739l-8.88,8.889
		c-1.083,1.081-1.654,2.47-1.741,3.886L101.954-7.996c-0.858-0.367-1.896-0.201-2.598,0.504c-0.707,0.704-0.87,1.739-0.503,2.601
		L87.667,6.307c-0.865-0.368-1.903-0.201-2.604,0.504c-0.705,0.704-0.871,1.74-0.503,2.603L59.402,34.585l-1.481-1.478l3.883-3.879
		c0.622,0.179,1.312,0.033,1.801-0.458c0.712-0.716,0.717-1.873,0-2.592c-0.72-0.717-1.873-0.717-2.587,0
		c-0.492,0.488-0.637,1.186-0.46,1.805l-86.185,86.247c-0.622-0.175-1.314-0.032-1.804,0.459c-0.715,0.723-0.718,1.877,0,2.589
		c0.717,0.722,1.876,0.722,2.589,0c0.491-0.484,0.635-1.185,0.457-1.797l0.841-0.843l1.478,1.477l-4.926,4.927
		c0.035-0.825-0.055-1.617-0.243-2.173l-0.25-0.734c-0.538-1.565-2.06-1.873-3.625-1.33c-1.563,0.54-2.579,1.712-2.04,3.283
		l0.25,0.725c0.37,1.08,1.566,2.594,2.809,3.337l-0.854,0.853c-0.189-0.345-0.441-0.69-0.75-0.992
		c-1.172-1.178-2.672-1.578-3.84-0.4l-0.549,0.54c-1.018,1.02-2.103,3.544-1.696,5.059l-2.034,2.036
		c-0.248,0.24-0.248,0.636,0,0.883l0.07,0.072l0.803,0.804l-2.415,2.414c0.388-1.118,0.345-2.098-0.221-2.672
		c-1.118-1.11-3.828-0.207-6.063,2.022c-2.231,2.237-3.137,4.949-2.022,6.069c0.571,0.567,1.55,0.606,2.667,0.219l-6.379,6.391
		c0.389-1.122,0.345-2.106-0.223-2.679c-1.117-1.118-3.829-0.209-6.061,2.029c-2.235,2.232-3.138,4.945-2.024,6.066
		c0.569,0.556,1.549,0.609,2.667,0.217l-9.237,9.246c-1.632-0.495-2.487,0.017-2.866,0.396c-1.601,1.605,0.173,5.063,2.753,7.648
		c2.58,2.578,6.032,4.353,7.633,2.747c0.435-0.43,0.839-1.245,0.452-2.681l31.798-31.813c1.339,0.286,3.445-0.652,5.237-2.448
		c1.8-1.797,2.732-3.91,2.448-5.243L22.223,87.87c1.423,0.187,2.915-0.266,4.013-1.364c1.096-1.09,1.544-2.587,1.365-4.016
		l0.943-0.945l1.593,1.59c0.011,0.017,0.031,0.022,0.044,0.029c0.397,0.542,2.848,1.664,5.686,0.994
		c3.122-0.766,4.269-3.629,2.965-4.972c-1.297-1.391-3.134-0.693-4.947,0.682c-1.046,0.847-2.132,1.594-2.872,2.176l-1.489-1.483
		l0.988-0.979c1.427,0.176,2.914-0.267,4.011-1.363c1.095-1.097,1.542-2.588,1.364-4.021l56.715-56.745
		c0.858,0.362,1.885,0.192,2.588-0.503c0.699-0.7,0.866-1.731,0.51-2.592l11.197-11.208c0.858,0.365,1.89,0.197,2.59-0.501
		c0.702-0.699,0.865-1.735,0.505-2.592l62.417-62.455c0.198-0.019,0.393-0.091,0.541-0.238c2.285-2.288,2.285-6.015,0-8.306
		C170.656-73.237,166.937-73.237,164.651-70.95z M148.226-42.192c-1.242,1.254-3.129,1.405-4.189,0.342
		c-1.061-1.059-0.909-2.939,0.343-4.193c1.25-1.251,3.13-1.405,4.197-0.342C149.634-45.324,149.482-43.444,148.226-42.192z
		 M58.515,35.475l-10.07,10.077l-1.481-1.481l10.069-10.078L58.515,35.475z M46.019,61.572l-3.802,3.805
		c0.275-1.5-0.169-3.102-1.327-4.259c-1.141-1.144-2.703-1.583-4.173-1.34l3.351-3.359c-0.146,1.387,0.316,2.823,1.377,3.896
		C42.685,61.557,44.44,61.975,46.019,61.572z M14.464,93.152l-6.612,6.614c0.271-1.497-0.169-3.089-1.328-4.256
		c-1.135-1.14-2.696-1.582-4.174-1.336l6.521-6.536c-0.235,1.475,0.208,3.046,1.342,4.178C11.371,92.979,12.967,93.42,14.464,93.152
		z M-18.396,114.927l6.379-6.375c-0.241,1.472,0.202,3.05,1.337,4.178c1.162,1.16,2.761,1.599,4.257,1.327l-6.465,6.473
		c0.267-1.496-0.172-3.1-1.329-4.256C-15.358,115.136-16.918,114.69-18.396,114.927z M-0.426,94.469l-1.484-1.479l9.605-9.605
		l1.469,1.479L-0.426,94.469z M-1.31,95.356l-9.527,9.527l-1.479-1.474l9.524-9.532L-1.31,95.356z M-8.056,104.588l6.447-6.447
		c-0.238,1.478,0.203,3.039,1.344,4.172c1.152,1.16,2.756,1.604,4.249,1.326l-6.537,6.548c0.274-1.5-0.17-3.096-1.331-4.26
		C-5.016,104.782-6.584,104.345-8.056,104.588z M8.575,82.493l6.385-6.393l1.476,1.481l-6.384,6.394L8.575,82.493z M15.846,75.219
		l7.401-7.412l1.471,1.483l-7.397,7.404L15.846,75.219z M24.131,66.921l7.435-7.444l1.479,1.481l-7.44,7.438L24.131,66.921z
		 M33.93,60.07l-1.476-1.48l6.589-6.594l1.481,1.476L33.93,60.07z M39.932,51.111l6.154-6.156l1.475,1.48l-6.154,6.152
		L39.932,51.111z M-22.657,113.749l9.454-9.461l1.479,1.483l-9.451,9.46L-22.657,113.749z M-35.531,134.438l-1.18-1.177l4.859-4.864
		c0,0,0.002,0,0.008,0l0.543-0.546c0.003-0.009,0.003-0.009,0.005-0.009l2.47-2.471l0.605,1.763L-35.531,134.438z M-38.389,131.583
		l1.491-1.492c0.238,0.064,0.513,0.08,0.792,0.072l-1.852,1.852L-38.389,131.583z M-61.904,169.574
		c-0.244,0.239-0.319,0.604-0.202,0.924c0.295,0.806,0.24,1.265,0.13,1.378c-0.347,0.35-2.581-0.191-5.146-2.756
		c-2.565-2.567-3.103-4.798-2.755-5.156c0.124-0.111,0.63-0.165,1.527,0.192c0.327,0.131,0.703,0.054,0.949-0.192l29.704-29.716
		l1.182,1.183l-20.012,20.023c-0.618-0.185-1.318-0.041-1.801,0.455c-0.719,0.709-0.719,1.878,0,2.586
		c0.713,0.719,1.873,0.719,2.586,0c0.491-0.492,0.635-1.182,0.457-1.803l30.841-30.852c0.622,0.17,1.312,0.031,1.802-0.458
		c0.714-0.721,0.717-1.877,0-2.591c-0.715-0.714-1.873-0.717-2.588,0c-0.49,0.489-0.635,1.184-0.455,1.802l-1.546,1.545
		l-0.601-1.753l5.483-5.495c-0.24,1.471,0.202,3.046,1.339,4.179c1.159,1.16,2.76,1.603,4.257,1.331l-5.274,5.273
		c-1.335-0.292-3.446,0.646-5.248,2.445c-1.801,1.809-2.738,3.917-2.444,5.26L-61.904,169.574z M27.727,71.409
		c-1.878,1.886-1.878,4.919,0,6.804c0.29,0.28,0.606,0.524,0.941,0.723l-0.383,0.38l-1.008-1.007
		c-0.284-0.286-0.734-0.297-1.008-0.021c-0.274,0.272-0.262,0.721,0.022,1.002l1.007,1.007l-0.34,0.343
		c-0.202-0.329-0.443-0.646-0.722-0.935c-1.878-1.88-4.92-1.88-6.795,0c-1.877,1.879-1.877,4.923,0,6.795
		c0.288,0.286,0.605,0.524,0.937,0.729l-2.045,2.048c0.274-1.497-0.17-3.105-1.328-4.256c-1.135-1.14-2.697-1.584-4.174-1.349
		l19.925-19.931c-0.247,1.47,0.196,3.04,1.338,4.172c1.159,1.167,2.757,1.606,4.257,1.334l-3.099,3.094
		c-0.2-0.325-0.442-0.646-0.726-0.935C32.648,69.529,29.602,69.529,27.727,71.409z M108.248-0.694c-0.34,0.345-0.348,0.899,0,1.244
		c0.235,0.235,0.235,0.621,0,0.854c-0.241,0.235-0.621,0.235-0.856,0c-0.35-0.341-0.897-0.341-1.244,0.003L93.955,13.61
		c-0.343,0.344-0.348,0.895,0,1.243c0.229,0.237,0.229,0.619-0.005,0.856c-0.235,0.235-0.621,0.235-0.856,0
		c-0.342-0.341-0.9-0.341-1.24,0.004L49.502,58.086c0.396-1.582-0.016-3.334-1.251-4.576c-1.071-1.062-2.51-1.521-3.896-1.38
		l41.948-41.975c0.348-0.342,0.348-0.9,0-1.245c-0.229-0.235-0.229-0.622,0-0.857c0.242-0.235,0.629-0.235,0.856,0
		c0.346,0.342,0.903,0.342,1.248,0l12.194-12.203c0.345-0.342,0.337-0.9-0.005-1.244c-0.235-0.237-0.235-0.62,0.005-0.855
		c0.234-0.238,0.62-0.238,0.856,0c0.347,0.342,0.897,0.342,1.24,0l32.516-32.535c0.283,0.873,0.763,1.693,1.457,2.387
		c1.542,1.544,3.719,2.062,5.7,1.566L108.248-0.694z M170.938-63.412l-15.352,15.36c0.499-1.977-0.018-4.157-1.564-5.703
		c-0.693-0.69-1.508-1.173-2.382-1.458l13.752-13.753L170.938-63.412z M172.26-64.583l-5.673-5.679
		c1.589-1.019,3.73-0.832,5.114,0.556C173.091-68.315,173.272-66.174,172.26-64.583z"/>
</g>
</svg>
