<?xml version="1.0" encoding="utf-8"?>
<!-- Generator: Adobe Illustrator 16.0.0, SVG Export Plug-In . SVG Version: 6.00 Build 0)  -->
<!DOCTYPE svg PUBLIC "-//W3C//DTD SVG 1.1//EN" "http://www.w3.org/Graphics/SVG/1.1/DTD/svg11.dtd">
<svg version="1.1" id="Layer_1" xmlns="http://www.w3.org/2000/svg" xmlns:xlink="http://www.w3.org/1999/xlink" x="0px" y="0px"
	 width="250px" height="250px" viewBox="-75 -75 250 250" enable-background="new -75 -75 250 250" xml:space="preserve">
<path d="M47.129,125.155c5.732-18.179,9.886-19.626,20.716-27.484c10.827-7.851,10.973-14.187,11.628-23.285
	c0.655-9.096-13.559-25.34-13.559-25.34s65.309-73.098,67.608-75.833c2.31-2.739,10.34-2.25,10.34-2.25s0.972-2.943,3.535-7.203
	l0.662,0.604c-0.342,0.819-0.095,1.871,0.694,2.594c0.973,0.894,2.371,0.936,3.137,0.111c0.763-0.831,0.587-2.225-0.385-3.112
	c-0.789-0.722-1.865-0.878-2.646-0.466l-0.835-0.757c1.052-1.664,2.337-3.492,3.88-5.406c0.369-0.46,0.748-0.9,1.135-1.327
	l1.458,1.342c-0.343,0.813-0.09,1.865,0.696,2.592c0.977,0.888,2.371,0.937,3.14,0.106c0.754-0.831,0.58-2.223-0.387-3.111
	c-0.79-0.722-1.863-0.88-2.646-0.47l-1.444-1.323c2.106-2.178,4.336-3.926,6.322-5.251l1.135,1.039
	c-0.342,0.814-0.091,1.869,0.701,2.593c0.972,0.887,2.373,0.936,3.134,0.105c0.755-0.83,0.582-2.223-0.392-3.111
	c-0.786-0.722-1.858-0.879-2.642-0.47l-0.897-0.827c2.862-1.798,4.973-2.642,4.973-2.642l-0.06-10.962l-4.519-2.121l-2.513-4.314
	l-10.923,0.9c0,0-0.655,2.182-2.198,5.194l-1.428-1.313c0.341-0.814,0.087-1.871-0.705-2.594c-0.968-0.887-2.372-0.936-3.134-0.105
	c-0.755,0.832-0.582,2.224,0.387,3.112c0.792,0.721,1.857,0.879,2.646,0.47l1.663,1.521c-1.146,2.092-2.689,4.47-4.679,6.762
	l-1.386-1.27c0.345-0.82,0.093-1.871-0.698-2.592c-0.972-0.888-2.377-0.938-3.131-0.106c-0.762,0.825-0.585,2.217,0.385,3.111
	c0.789,0.722,1.858,0.88,2.642,0.47l1.402,1.283c-0.39,0.419-0.798,0.833-1.218,1.241c-1.771,1.704-3.479,3.14-5.047,4.338
	l-0.775-0.708c0.339-0.817,0.087-1.871-0.699-2.592c-0.969-0.891-2.376-0.937-3.13-0.106c-0.763,0.828-0.589,2.22,0.382,3.105
	c0.792,0.722,1.861,0.886,2.642,0.47l0.609,0.555c-4.02,2.925-6.863,4.155-6.863,4.155s1.191,7.958-1.331,10.495
	c-2.523,2.536-69.59,74.026-69.59,74.026S37.493,26.274,28.491,27.726c-9.003,1.449-15.299,2.149-22.172,13.627
	c-6.873,11.482-7.95,15.748-25.549,23.062c-17.603,7.311-34.798,14.18-39.405,24.51c-4.604,10.322-13.909,28.867,21.688,61.461
	c35.597,32.589,53.249,21.685,63.131,16.184C36.06,161.069,41.393,143.333,47.129,125.155z M42.37,63.741
	c4.948,4.531,5.29,12.218,0.756,17.171c-4.535,4.951-12.219,5.291-17.174,0.76c-4.95-4.532-5.292-12.223-0.756-17.173
	C29.729,59.548,37.416,59.205,42.37,63.741z M11.943,123.441L0.521,112.979l-3.518-3.216l-11.427-10.46l4.828-5.274l7.206,5.588
	l1.864-0.716l4.064,3.725l3.519,3.215l4.066,3.723l-0.551,1.924l6.201,6.683L11.943,123.441z"/>
</svg>
