<?xml version="1.0" encoding="utf-8"?>
<!-- Generator: Adobe Illustrator 16.0.0, SVG Export Plug-In . SVG Version: 6.00 Build 0)  -->
<!DOCTYPE svg PUBLIC "-//W3C//DTD SVG 1.1//EN" "http://www.w3.org/Graphics/SVG/1.1/DTD/svg11.dtd">
<svg version="1.1"
	 id="svg2876" xmlns:rdf="http://www.w3.org/1999/02/22-rdf-syntax-ns#" xmlns:cc="http://creativecommons.org/ns#" xmlns:dc="http://purl.org/dc/elements/1.1/" xmlns:svg="http://www.w3.org/2000/svg" xmlns:inkscape="http://www.inkscape.org/namespaces/inkscape" xmlns:sodipodi="http://sodipodi.sourceforge.net/DTD/sodipodi-0.dtd" inkscape:version="0.47 r22583" sodipodi:docname="saxophone.svg"
	 xmlns="http://www.w3.org/2000/svg" xmlns:xlink="http://www.w3.org/1999/xlink" x="0px" y="0px" width="250px" height="250px"
	 viewBox="-95.171 -75 250 250" enable-background="new -95.171 -75 250 250" xml:space="preserve">
<sodipodi:namedview  bordercolor="#666666" pagecolor="#ffffff" borderopacity="1" guidetolerance="10" objecttolerance="10" gridtolerance="10" inkscape:cy="44.29134" inkscape:cx="-14.263313" id="namedview2888" showgrid="false" inkscape:zoom="2.6641777" inkscape:pageshadow="2" inkscape:window-maximized="1" inkscape:window-x="-8" inkscape:window-y="-8" inkscape:pageopacity="0" inkscape:window-height="738" inkscape:window-width="1280" inkscape:current-layer="svg2876">
	</sodipodi:namedview>
<defs>
	
	
		<inkscape:perspective  inkscape:vp_x="0 : 44.29134 : 1" sodipodi:type="inkscape:persp3d" inkscape:vp_y="0 : 1000 : 0" inkscape:vp_z="88.58268 : 44.29134 : 1" id="perspective2892" inkscape:persp3d-origin="44.29134 : 29.52756 : 1">
		</inkscape:perspective>
	
		<inkscape:perspective  inkscape:vp_x="0 : 50 : 1" sodipodi:type="inkscape:persp3d" inkscape:vp_y="0 : 1000 : 0" inkscape:vp_z="90 : 50 : 1" id="perspective3682" inkscape:persp3d-origin="45 : 33.333333 : 1">
		</inkscape:perspective>
	
		<inkscape:perspective  inkscape:vp_x="0 : 44.29134 : 1" sodipodi:type="inkscape:persp3d" inkscape:vp_y="0 : 1000 : 0" inkscape:vp_z="88.58268 : 44.29134 : 1" id="perspective3743" inkscape:persp3d-origin="44.29134 : 29.52756 : 1">
		</inkscape:perspective>
	
		<inkscape:perspective  inkscape:vp_x="0 : 44.29134 : 1" sodipodi:type="inkscape:persp3d" inkscape:vp_y="0 : 1000 : 0" inkscape:vp_z="88.58268 : 44.29134 : 1" id="perspective3769" inkscape:persp3d-origin="44.29134 : 29.52756 : 1">
		</inkscape:perspective>
	
		<inkscape:perspective  inkscape:vp_x="0 : 44.29134 : 1" sodipodi:type="inkscape:persp3d" inkscape:vp_y="0 : 1000 : 0" inkscape:vp_z="88.58268 : 44.29134 : 1" id="perspective3795" inkscape:persp3d-origin="44.29134 : 29.52756 : 1">
		</inkscape:perspective>
</defs>
<g>
	<path id="path2953" d="M2.349-72.404c-9.437-0.151-19.738,5.657-23.019,16.217c-0.152,0.498-2.579,7.666-2.706,8.196h-19.878
		c7.965,5.312,10.611,6.712,18.571,6.712c1.328,0,6.693-0.028,8.02-4.01c0.402-1.206,3.123-9.113,3.666-10.202
		c2.359-4.753,5.988-8.281,10.463-8.281c5.506,0,5.758,5.277,5.318,10.636l-14.562,177.95c-2,24.387,17.241,47.778,47.782,47.778
		c17.346,0,28.424-5.58,34.003-22.318s-2.861-47.756,17.786-54.666L43.939,51.752c-15.568,14.91-13.675,46.693-10.638,66.438
		c0.612,3.961,0.081,15.871-5.231,15.871c-5.312,0-7.484-9.699-7.498-14.211L20.047-53.135
		C20.331-66.173,11.784-72.249,2.349-72.404z M8.625,23.242c3.3,0,6.017,2.629,6.017,5.928c0,3.301-2.717,6.016-6.017,6.016
		s-5.93-2.714-5.93-6.016C2.696,25.872,5.329,23.242,8.625,23.242z M7.751,46.434c3.303,0,5.93,2.717,5.93,6.017
		c0,3.301-2.627,5.928-5.93,5.928c-3.297,0-6.015-2.627-6.015-5.928C1.736,49.151,4.455,46.434,7.751,46.434z M6.794,69.715
		c3.303,0,5.93,2.627,5.93,5.93c0,3.3-2.633,6.014-5.93,6.014c-3.299,0-6.015-2.714-6.015-6.014
		C0.779,72.342,3.495,69.715,6.794,69.715z"/>
	<path id="path2951" d="M100.859,96.248l1.124-1.129c1.239-1.238,1.239-3.264,0-4.502L47.341,35.972
		c-1.24-1.238-3.269-1.238-4.513,0L41.705,37.1c-1.24,1.238-1.24,3.266,0,4.505l54.646,54.644
		C97.585,97.488,99.615,97.488,100.859,96.248z"/>
</g>
</svg>
