<?xml version="1.0" encoding="utf-8"?>
<!-- Generator: Adobe Illustrator 16.0.0, SVG Export Plug-In . SVG Version: 6.00 Build 0)  -->
<!DOCTYPE svg PUBLIC "-//W3C//DTD SVG 1.1//EN" "http://www.w3.org/Graphics/SVG/1.1/DTD/svg11.dtd">
<svg version="1.1" id="Layer_1" xmlns="http://www.w3.org/2000/svg" xmlns:xlink="http://www.w3.org/1999/xlink" x="0px" y="0px"
	 width="250px" height="250px" viewBox="-75 -75 250 250" enable-background="new -75 -75 250 250" xml:space="preserve">
<g id="Captions">
</g>
<g id="Your_Icon">
	<g>
		<g>
			<path d="M51.451,89.195c-30.68,0-59.622-2.92-81.5-8.218c-26.772-6.487-39.787-15.651-39.787-28.016
				c0-12.371,13.013-21.536,39.787-28.023c21.881-5.303,50.82-8.221,81.5-8.221c30.678,0,59.618,2.918,81.5,8.221
				c26.772,6.487,39.787,15.653,39.787,28.023c0,12.364-13.018,21.528-39.787,28.016C111.069,86.275,82.129,89.195,51.451,89.195z
				 M-51.371,52.962c5.166,5.915,38.784,18.149,102.822,18.149c64.038,0,97.655-12.24,102.82-18.149
				c-5.165-5.918-38.782-18.157-102.82-18.157C-12.586,34.805-46.205,47.044-51.371,52.962z"/>
		</g>
		<g>
			<path d="M51.518,171.057c-4.923,0-120.637-0.405-120.637-35.816V58.448c0-4.995,4.047-9.043,9.043-9.043
				c4.995,0,9.043,4.048,9.043,9.043v76.187c1.446,1.971,9.097,7.221,30.606,11.784c19.886,4.226,45.434,6.553,71.944,6.553
				c26.508,0,52.038-2.324,71.888-6.553c21.472-4.567,29.093-9.813,30.53-11.773V58.448c0-4.995,4.046-9.043,9.041-9.043
				c4.996,0,9.044,4.048,9.044,9.043v76.792C172.021,170.651,56.437,171.057,51.518,171.057z"/>
		</g>
		<g>
			<path d="M51.518,101.938c-29.96,0-58.278-2.85-79.74-8.02c-26.381-6.356-39.203-15.369-39.203-27.546
				c0-4.992,4.047-9.043,9.043-9.043c4.79,0,8.712,3.722,9.021,8.433C-45.107,72.386-8.518,83.85,51.518,83.85
				c59.977,0,96.51-11.463,100.739-18.079c0.311-4.711,4.232-8.441,9.024-8.441c4.993,0,9.043,4.051,9.043,9.043
				c0,12.177-12.799,21.187-39.132,27.546C109.769,99.088,81.469,101.938,51.518,101.938z"/>
		</g>
		<g>
			<path d="M51.518,154.892c-44.25,0-119.129-7.259-119.129-34.47c0-4.162,3.373-7.535,7.536-7.535c4.115,0,7.462,3.3,7.535,7.4
				c2.086,5.619,35.754,19.53,104.059,19.53c68.524,0,102.122-14.021,103.945-19.598c0-4.16,3.361-7.438,7.523-7.438
				s7.526,3.479,7.526,7.641C170.513,147.633,95.717,154.892,51.518,154.892z"/>
		</g>
	</g>
	<g>
		<g>
			<g>
				<g>
					<path d="M130.308,58.499c-1.259,0-2.564-0.42-3.684-1.178c-1.44-0.976-2.437-2.423-2.729-3.967
						c-0.235-1.224-0.006-2.434,0.646-3.395c0.847-1.239,2.283-1.95,3.948-1.95c1.254,0,2.562,0.419,3.674,1.177
						c2.672,1.823,3.603,5.122,2.081,7.367C133.4,57.788,131.966,58.499,130.308,58.499z"/>
				</g>
				<g>
					<path d="M128.49,49.514c0.918,0,1.918,0.301,2.824,0.913c1.987,1.353,2.74,3.716,1.686,5.275
						c-0.582,0.852-1.578,1.286-2.689,1.286c-0.927,0-1.931-0.301-2.832-0.915c-1.991-1.347-2.744-3.706-1.688-5.271
						C126.371,49.955,127.372,49.514,128.49,49.514 M128.49,46.499c-2.171,0-4.065,0.953-5.192,2.61
						c-0.881,1.296-1.194,2.904-0.884,4.523c0.372,1.936,1.603,3.738,3.371,4.937c1.357,0.927,2.964,1.433,4.522,1.433
						c2.165,0,4.055-0.948,5.183-2.607c1.99-2.926,0.877-7.173-2.479-9.459C131.646,47.012,130.041,46.499,128.49,46.499
						L128.49,46.499z"/>
				</g>
			</g>
			<g>
				<g>
					<path d="M131.966,56.876c-8.144,0-121.688-77.215-170.125-110.41l-0.974-0.669c-2.352-1.6-2.788-5.08-0.973-7.752
						c1.157-1.697,3.034-2.755,4.904-2.755c0.963,0,1.886,0.28,2.66,0.81l0.704,0.474C29.495-22.102,132.573,48.202,133.829,54.727
						l0.119,0.612l-0.385,0.749C133.362,56.374,132.887,56.876,131.966,56.876z"/>
				</g>
				<g>
					<path d="M-35.206-63.204c0.645,0,1.269,0.175,1.814,0.546c1.666,1.13,168.722,113.469,165.708,117.897
						c-0.06,0.082-0.177,0.124-0.349,0.124c-8.925,0-168.621-109.708-170.255-110.815c-1.67-1.136-1.923-3.668-0.572-5.657
						C-37.949-62.451-36.539-63.204-35.206-63.204 M-35.206-66.218L-35.206-66.218c-2.396,0-4.694,1.274-6.147,3.412
						c-2.281,3.364-1.668,7.776,1.367,9.845l0.969,0.661c14.116,9.676,50.806,34.75,86.528,58.568
						c78.146,52.108,82.409,52.108,84.455,52.108c1.18,0,2.217-0.526,2.842-1.445c0.494-0.721,0.671-1.607,0.5-2.493
						c-0.425-2.208-1.069-5.543-79.827-60.101C19.711-30.44-16.91-55.19-30.992-64.678l-0.705-0.476
						C-32.722-65.85-33.937-66.218-35.206-66.218L-35.206-66.218z"/>
				</g>
			</g>
		</g>
		<g>
			<g>
				<g>
					<path d="M-27.406,58.499c-1.66,0-3.094-0.708-3.938-1.948c-1.523-2.245-0.589-5.548,2.083-7.367
						c1.111-0.758,2.419-1.176,3.673-1.176c1.665,0,3.1,0.709,3.946,1.95c0.653,0.96,0.882,2.167,0.648,3.392
						c-0.294,1.549-1.293,2.993-2.733,3.972C-24.843,58.079-26.148,58.499-27.406,58.499L-27.406,58.499z"/>
				</g>
				<g>
					<path d="M-25.587,49.514c1.116,0,2.116,0.438,2.695,1.288c1.061,1.565,0.307,3.925-1.685,5.271
						c-0.904,0.614-1.907,0.915-2.83,0.915c-1.112,0-2.112-0.438-2.692-1.286c-1.061-1.559-0.308-3.922,1.685-5.275
						C-27.51,49.815-26.508,49.514-25.587,49.514 M-25.587,46.499c-1.556,0-3.162,0.509-4.521,1.436
						c-3.357,2.284-4.473,6.527-2.48,9.459c1.128,1.659,3.014,2.607,5.183,2.607c1.556,0,3.167-0.513,4.527-1.436
						c1.766-1.195,2.994-2.994,3.365-4.929c0.311-1.622-0.003-3.229-0.883-4.525C-21.524,47.452-23.414,46.499-25.587,46.499
						L-25.587,46.499z"/>
				</g>
			</g>
			<g>
				<g>
					<path d="M-29.066,56.876c-0.922,0-1.395-0.495-1.594-0.788l-0.349-0.52l0.083-0.842
						c1.257-6.525,104.336-76.829,165.669-118.153l0.705-0.476c0.771-0.528,1.696-0.808,2.658-0.808
						c1.869,0,3.747,1.058,4.901,2.755c1.82,2.676,1.382,6.152-0.965,7.749l-0.983,0.676C92.623-20.339-20.909,56.876-29.066,56.876
						L-29.066,56.876z"/>
				</g>
				<g>
					<path d="M138.106-63.204c1.333,0,2.743,0.753,3.653,2.095c1.35,1.989,1.099,4.521-0.57,5.657
						C139.559-54.342-20.144,55.363-29.066,55.363c-0.172,0-0.29-0.042-0.346-0.124c-3.015-4.431,164.043-116.767,165.709-117.897
						C136.838-63.029,137.466-63.204,138.106-63.204 M138.106-66.218c-1.269,0-2.485,0.371-3.512,1.07l-0.7,0.473
						c-14.082,9.488-50.7,34.24-86.471,59.016c-78.761,54.559-79.405,57.896-79.825,60.1c-0.169,0.887,0.005,1.773,0.5,2.497
						c0.621,0.915,1.657,1.445,2.839,1.445c2.045,0,6.308,0,84.457-52.111c35.72-23.819,72.41-48.892,86.523-58.568l0.97-0.662
						c3.04-2.071,3.652-6.486,1.372-9.845C142.802-64.943,140.503-66.218,138.106-66.218L138.106-66.218z"/>
				</g>
			</g>
		</g>
	</g>
</g>
</svg>
