<?xml version="1.0" encoding="utf-8"?>
<!-- Generator: Adobe Illustrator 16.0.0, SVG Export Plug-In . SVG Version: 6.00 Build 0)  -->
<!DOCTYPE svg PUBLIC "-//W3C//DTD SVG 1.1//EN" "http://www.w3.org/Graphics/SVG/1.1/DTD/svg11.dtd">
<svg version="1.1" id="Layer_1" xmlns="http://www.w3.org/2000/svg" xmlns:xlink="http://www.w3.org/1999/xlink" x="0px" y="0px"
	 width="250px" height="250px" viewBox="-75 -75 250 250" enable-background="new -75 -75 250 250" xml:space="preserve">
<g>
	<path d="M-1.476-16.769c-34.867,0-63.127,9.484-63.127,21.177c0,11.691,28.263,21.176,63.127,21.176
		c34.863,0,63.128-9.485,63.128-21.176C61.652-7.285,33.387-16.769-1.476-16.769z M-1.476,22.5c-29.785,0-53.926-8.1-53.926-18.092
		c0-9.995,24.144-18.094,53.926-18.094c29.781,0,53.924,8.099,53.924,18.094C52.448,14.4,28.305,22.5-1.476,22.5z"/>
	<ellipse cx="6.426" cy="-1.59" rx="17.605" ry="6"/>
	<path d="M120.859-6.291c-20.862,0-37.774,5.901-37.774,13.189c0,7.28,16.912,13.182,37.774,13.182
		c20.863,0,37.777-5.901,37.777-13.182C158.636-0.389,141.723-6.291,120.859-6.291z M120.859,16.604
		c-17.011,0-30.801-4.6-30.801-10.278c0-5.676,13.79-10.277,30.801-10.277c17.015,0,30.802,4.601,30.802,10.277
		C151.661,12.004,137.874,16.604,120.859,16.604z"/>
	<ellipse cx="120.859" cy="3.477" rx="15.428" ry="5.148"/>
	<path d="M61.652,5.394c0,11.698-28.265,21.175-63.128,21.175c-34.864,0-63.127-9.479-63.127-21.175c0,0-11.259,46.291-6.154,60.685
		c8.717,24.586,40.453,48.674,40.453,48.674s7.3,6.249,28.831,6.249c14.791,0,25.505-6.908,25.505-6.908
		s31.004-20.225,42.346-47.025C72.411,52.809,61.652,5.394,61.652,5.394z"/>
	<path d="M158.636,7.885c0,7.281-16.915,13.182-37.776,13.182c-20.866,0-37.779-5.901-37.779-13.182
		c0,0-13.503,33.023-13.664,44.304c-0.22,15.421,17.756,56.481,17.756,56.481s13.813,9.375,33.681,9.375
		c17.871,0,32.668-9.618,32.668-9.618s20.057-38.64,20.473-52.784C174.363,43.104,158.636,7.885,158.636,7.885z"/>
</g>
</svg>
