<?xml version="1.0" encoding="utf-8"?>
<!-- Generator: Adobe Illustrator 16.0.0, SVG Export Plug-In . SVG Version: 6.00 Build 0)  -->
<!DOCTYPE svg PUBLIC "-//W3C//DTD SVG 1.1//EN" "http://www.w3.org/Graphics/SVG/1.1/DTD/svg11.dtd">
<svg version="1.1" id="Layer_1" xmlns="http://www.w3.org/2000/svg" xmlns:xlink="http://www.w3.org/1999/xlink" x="0px" y="0px"
	 width="250px" height="250px" viewBox="-75 -75 250 250" enable-background="new -75 -75 250 250" xml:space="preserve">
<path d="M153.019-45.804c-6.973-7.508-25.568-23.759-28.645-20.744c-1.264,1.239-0.321,4.217,2.07,8.205
	c2.012,10.004,2.79,22.897-17.997,43.522C90.168,3.319,58.592,33.409,29.712,60.733l-2.89-3.363l1.254-1.082
	c0.832-0.711,0.926-1.965,0.211-2.792l-0.038-0.044c-0.713-0.828-1.963-0.923-2.792-0.21l-4.866,4.188
	c-0.832,0.712-0.926,1.96-0.213,2.791l0.038,0.048c0.716,0.824,1.962,0.919,2.794,0.207l1.257-1.082l2.99,3.478
	c-2.562,2.422-5.097,4.818-7.6,7.187l-3.312-3.85l1.258-1.082c0.83-0.718,0.922-1.966,0.211-2.795l-0.039-0.048
	c-0.714-0.827-1.962-0.92-2.794-0.208l-4.866,4.188c-0.83,0.718-0.922,1.966-0.21,2.793l0.038,0.051
	c0.712,0.821,1.962,0.918,2.795,0.207l1.257-1.085l3.404,3.957c-2.025,1.915-4.021,3.799-5.988,5.651
	c-0.467,0.138-0.921,0.372-1.323,0.72l-0.568,0.484L6.279,75.04l1.256-1.079c0.83-0.715,0.924-1.966,0.21-2.791l-0.035-0.048
	c-0.716-0.824-1.965-0.918-2.794-0.208l-4.868,4.188c-0.83,0.716-0.924,1.963-0.21,2.79l0.035,0.045
	c0.715,0.833,1.966,0.927,2.794,0.211l1.258-1.083l3.443,4.005l-0.571,0.487c-0.613,0.524-0.996,1.209-1.15,1.902
	c-13.566,12.797-25.136,23.667-32.413,30.517c-4.643,4.363-7.128,10.216-7.172,16.063l-7.391,6.76l-0.068-0.082l-2.778,2.39
	c-0.483,0.419-0.708,1.013-0.677,1.606l-14.093,11.945c0,0-2.047-0.774-3.966,0.071c-1.923,0.848-3.515,2.881-5.452,1.969
	l-2.911,2.502c0,0,0.032,2.58,3.278,6.354c3.245,3.773,5.791,4.188,5.791,4.188l2.913-2.509c-0.61-2.045,1.635-3.318,2.757-5.091
	c1.123-1.773,0.667-3.913,0.667-3.913l13.902-12.147c0.581,0.116,1.208-0.02,1.687-0.433l2.782-2.385l-0.068-0.09l4.863-3.933
	c0.821,2.239,2.054,4.369,3.716,6.302l4.314,5.015c7.554,8.776,20.784,9.77,29.562,2.22l4.74-4.077
	c3.165,1.902,7.397,1.989,10.22-0.433l22.016-18.946l3.979,4.624c1.019,1.19,2.957,1.196,4.32,0.021l3.495-3.004
	c1.361-1.178,1.64-3.087,0.619-4.28l-8.11-9.425l1.839-1.579l8.11,9.429c1.022,1.184,2.957,1.193,4.321,0.015l3.488-3
	c1.365-1.172,1.642-3.091,0.624-4.276l-8.109-9.427l1.838-1.585l8.11,9.429c1.021,1.186,2.958,1.196,4.322,0.021l3.491-3.002
	c1.364-1.175,1.646-3.091,0.621-4.279l-8.107-9.425L82.112,84.33l13.053-11.227l12.167-10.47c2.587-2.225,3.254-5.942,2.264-9.178
	l1.241-1.07c0,0,0.567-0.948-0.206-1.841c-0.764-0.893-1.604-0.645-1.604-0.645c-0.673-1.465-4.135-3.096-4.654-4.138
	c-0.327-0.643-0.632-1.631-0.901-1.665c-0.273-0.038-0.724,1.493,0.178,2.553c0.746,0.861,3.086,2.154,3.996,3.316
	c-2.307-2.567-6.066-3.71-9.29-2.871c-0.039-0.049-0.069-0.094-0.111-0.142l-3.404-3.95c-7.553-8.779-17.538-8.411-26.313-0.861
	l-2.001,1.718L40.078,66.621l-1.242-1.451c29.86-25.778,63.199-54.502,80.246-68.976c22.314-18.956,34.655-17.313,44.491-14.575
	c3.798,2.683,6.696,3.84,8.027,2.667C174.829-18.562,159.989-38.3,153.019-45.804z M20.152,81.312l1.21,1.409l-1.836,1.585
	l-1.207-1.406C18.925,82.374,19.537,81.845,20.152,81.312z M-20.87,116.799c0,0,12.715-11.01,30.771-26.622l1.192,1.388
	l-35.085,30.185l-0.386-0.448l-0.877,0.801C-24.235,120.231-22.786,118.441-20.87,116.799z M-20.875,142.171l-1.231-1.428
	c-2.327-2.706-3.843-5.562-4.515-8.417l6.914-5.596l-0.382-0.448l35.085-30.185l14.848,17.26l-7.933,6.823l-0.467-0.543
	c5.301-6.318-2.603-13.581-3.68-15.087c-1.149-1.604-0.812-2.595-1.162-2.685c-0.346-0.094-1.64,0.832-0.631,2.675
	c1.006,1.843,8.807,9.697,2.817,14.852c-5.991,5.156-10.724-1.082-12.287-2.496c-1.564-1.421-3.54-0.828-3.525-0.482
	c0.017,0.388,1.709,0.733,2.939,1.677c1.787,1.359,5.938,8.207,12.586,4.051l0.479,0.563L7.83,132.299
	c-2.759,2.376-3.34,6.444-2.046,9.817l-2.802,2.41C-4.937,151.336-14.063,150.093-20.875,142.171z M33.247,117.313l0.581,0.671
	l-22.709,19.539c0.16-0.868,0.6-1.691,1.321-2.307L33.247,117.313z M38.458,123.364L17.65,141.268
	c-0.814,0.702-1.831,1.012-2.821,0.957l22.898-19.704L38.458,123.364z M42.264,110.728L23.431,88.84l1.836-1.583l18.835,21.89
	L42.264,110.728z M52.537,101.89L33.701,79.997l1.839-1.579l18.832,21.89L52.537,101.89z M62.812,93.049l-4.71-5.469l37.043-31.875
	c1.991,5.137-0.074,9.589-5.883,14.59L62.812,93.049z M103.134,54.096c1.377,1.6,1.262,3.972-0.216,5.436
	c0.15-2.104-0.15-4.233-0.929-6.351C102.415,53.404,102.802,53.71,103.134,54.096z M70.428,48.401
	c7.919-6.813,13.793-6.929,20.606,0.995l0.322,0.37c0.396,0.464,0.76,0.91,1.107,1.361L79.803,62.021l-0.346-0.405l9.706-8.349
	l-0.825-0.963l-9.709,8.354l-0.867-1.009l-1.589,1.375l-1.074-0.656l-0.54,0.465l-0.758-0.884l1.069-0.915l-0.416-0.486l0.553-0.475
	l-1.353-1.569l-4.276,3.684l1.348,1.57l0.55-0.476l0.415,0.478l1.07-0.917l0.763,0.885l-0.54,0.467l0.478,1.155l-1.59,1.369
	l0.864,1.006l-8.988,7.734c0.487-2.024,0.035-4.243-1.427-5.942c-2.416-2.802-6.647-3.122-9.454-0.708
	c-2.8,2.417-3.117,6.646-0.703,9.45c2.407,2.802,6.642,3.123,9.45,0.708l11.95-10.282l0.351,0.402L54.699,83.62L43.977,71.161
	L70.428,48.401z M60.785,76.006c-2.271,1.953-5.707,1.698-7.661-0.574c-1.958-2.279-1.703-5.712,0.575-7.667
	c2.272-1.958,5.707-1.704,7.668,0.573C63.318,70.617,63.064,74.044,60.785,76.006z M31.643,73.88l-1.842,1.585l-1.227-1.428
	c0.611-0.524,1.22-1.058,1.833-1.585L31.643,73.88z"/>
</svg>
