<?xml version="1.0" encoding="utf-8"?>
<!-- Generator: Adobe Illustrator 16.0.0, SVG Export Plug-In . SVG Version: 6.00 Build 0)  -->
<!DOCTYPE svg PUBLIC "-//W3C//DTD SVG 1.1//EN" "http://www.w3.org/Graphics/SVG/1.1/DTD/svg11.dtd">
<svg version="1.1" id="Your_Icon" xmlns="http://www.w3.org/2000/svg" xmlns:xlink="http://www.w3.org/1999/xlink" x="0px" y="0px"
	 width="250px" height="250px" viewBox="-75 -75 250 250" enable-background="new -75 -75 250 250" xml:space="preserve">
<path d="M163.968,72.229h-0.005l-80.267-19.26v2.279l79.754,19.13l0,0c0.596,0.142,1.192-0.22,1.334-0.816
	C164.926,72.969,164.559,72.371,163.968,72.229z"/>
<path d="M133.09,14.444L133.09,14.444c0.576-0.201,0.879-0.832,0.678-1.411c-0.197-0.577-0.832-0.88-1.407-0.682l0,0L83.696,29.311
	v2.344L133.09,14.444z"/>
<path d="M15.317,38.841c-0.819,1.919-2.479,3.304-4.429,3.815v12.019l16.011-5.578v-7.475L15.317,38.841z"/>
<polygon points="29.818,48.078 39.611,44.669 29.818,42.321 "/>
<polygon points="67.683,49.128 83.696,52.969 83.696,31.654 67.683,37.234 "/>
<polygon points="48.756,44.586 64.762,48.429 64.762,38.248 48.756,43.828 "/>
<path d="M67.683,94.524l-2.921-0.361V50.705l-16.008-3.847v45.336l-2.922-0.353V46.163l-2.235-0.538l-13.778,4.803v39.449
	l-2.916-0.357V51.443l-16.01,5.58v30.533l-2.923-0.36v-29.16l-16.01,5.579v21.611l-2.919-0.357V67.596
	c-0.593,1.965-2.076,3.624-4.159,4.348c-3.459,1.213-7.248-0.626-8.454-4.088c-1.205-3.459,0.624-7.247,4.083-8.45
	c3.109-1.085,6.468,0.281,8.002,3.07l0.532-0.188V19.141l2.919-0.361v42.491l16.01-5.576V42.753
	c-0.104-0.018-0.202-0.032-0.305-0.058C4.106,41.839,1.906,38.26,2.76,34.69c0.628-2.619,2.729-4.493,5.209-4.97v-12.91l2.923-0.353
	v13.361c3.127,0.813,5.16,3.739,4.941,6.868l11.068,2.656V14.486l2.916-0.352v25.91l13.663,3.278l2.353-0.819V12.165l2.922-0.357
	v29.678l16.007-5.582V9.841l2.921-0.358V34.89l16.012-5.579V-4.577c0-0.795-0.647-1.442-1.445-1.442H69.129
	c-0.793,0-1.444,0.647-1.444,1.442v7.124l-2.921,0.354V-1.88c0-0.797-0.644-1.444-1.446-1.444H50.201
	c-0.801,0-1.445,0.646-1.445,1.444v6.748l-2.922,0.36V0.684c0-0.796-0.644-1.444-1.446-1.444H31.267
	c-0.797,0-1.445,0.648-1.445,1.444v6.51l-2.917,0.357V3.126l0,0c0-0.798-0.647-1.444-1.444-1.444H12.337
	c-0.798,0-1.444,0.646-1.444,1.444v6.386l-2.923,0.36V5.454c0-0.801-0.645-1.446-1.442-1.446H-6.596
	c-0.792,0-1.445,0.645-1.445,1.446v6.378l-2.919,0.361V7.668c0-0.801-0.646-1.445-1.443-1.445h-13.123
	c-0.798,0-1.446,0.644-1.446,1.445v6.491l-2.918,0.354V9.775h-0.002c0-0.795-0.646-1.444-1.444-1.444h-13.121
	c-0.797,0-1.446,0.649-1.446,1.444v6.707l-2.919,0.354v-5.051c0-0.797-0.647-1.444-1.443-1.444h-13.121
	c-0.797,0-1.443,0.647-1.443,1.444v80.417c0,0.799,0.646,1.448,1.443,1.448h13.121c0.796,0,1.443-0.649,1.443-1.448v-5.049
	l2.919,0.354v6.706c0,0.8,0.649,1.448,1.446,1.448h13.118c0.799,0,1.445-0.648,1.445-1.448h0.002v-4.739l2.917,0.356v6.491
	c0,0.799,0.649,1.443,1.447,1.443h13.121c0.796,0,1.442-0.645,1.442-1.443v-4.523l2.92,0.354v6.383c0,0.799,0.652,1.446,1.444,1.446
	H6.521c0.799,0,1.443-0.647,1.443-1.446v-4.417l2.921,0.357v6.388c0,0.8,0.648,1.448,1.446,1.448h13.121
	c0.796,0,1.442-0.648,1.442-1.448l0,0v-4.427l2.918,0.36v6.511c0,0.794,0.649,1.44,1.446,1.44h13.121
	c0.802,0,1.444-0.646,1.444-1.44v-4.549l2.922,0.36v6.752c0,0.794,0.646,1.442,1.446,1.442h13.114c0.803,0,1.446-0.648,1.446-1.442
	v-4.767l2.919,0.36v7.12c0,0.794,0.653,1.442,1.446,1.442h13.122c0.798,0,1.444-0.648,1.444-1.442V55.248l-16.013-3.841v43.117
	H67.683z M76.215,3.106c0.898,0.234,1.564,1.046,1.564,2.017c0,0.974-0.666,1.782-1.564,2.015V3.106z M75.164,3.106v4.034
	c-0.897-0.236-1.563-1.041-1.563-2.016C73.601,4.156,74.271,3.34,75.164,3.106z M57.281,5.805c0.898,0.23,1.567,1.041,1.567,2.013
	c0,0.975-0.669,1.784-1.567,2.016V5.805z M56.234,5.805v4.032c-0.898-0.236-1.566-1.042-1.566-2.016
	C54.668,6.846,55.336,6.033,56.234,5.805z M38.352,8.364c0.901,0.236,1.57,1.047,1.57,2.019s-0.668,1.782-1.57,2.016V8.364z
	 M37.305,8.364v4.037c-0.903-0.234-1.567-1.044-1.567-2.016S36.404,8.601,37.305,8.364z M19.42,10.811
	c0.898,0.232,1.564,1.045,1.564,2.015c0,0.974-0.666,1.785-1.564,2.018V10.811z M18.374,10.811v4.035
	c-0.899-0.235-1.57-1.044-1.57-2.018C16.804,11.856,17.475,11.043,18.374,10.811z M0.49,13.138c0.902,0.235,1.568,1.043,1.568,2.017
	c0,0.974-0.666,1.784-1.568,2.016V13.138z M-0.559,13.138v4.034c-0.896-0.233-1.567-1.041-1.567-2.015
	C-2.126,14.184-1.453,13.373-0.559,13.138z M-18.443,15.361c0.898,0.233,1.568,1.038,1.568,2.013c0,0.971-0.67,1.784-1.568,2.014
	V15.361z M-19.488,15.361v4.03c-0.898-0.232-1.567-1.043-1.567-2.015C-21.056,16.399-20.387,15.592-19.488,15.361z M-57.352,84.529
	c-0.898-0.233-1.567-1.041-1.567-2.018c0-0.973,0.669-1.778,1.567-2.014V84.529z M-57.352,23.513
	c-0.898-0.236-1.567-1.044-1.567-2.016c0-0.974,0.669-1.785,1.567-2.018V23.513z M-56.303,84.529v-4.033
	c0.898,0.237,1.564,1.043,1.564,2.016C-54.738,83.488-55.404,84.296-56.303,84.529z M-56.303,23.513v-4.034
	c0.898,0.233,1.564,1.042,1.564,2.015C-54.738,22.466-55.404,23.276-56.303,23.513z M-45.904,80.577l-2.919-0.355V23.786
	l2.919-0.359V80.577z M-38.418,86.54c-0.901-0.232-1.57-1.045-1.57-2.017c0-0.973,0.669-1.784,1.57-2.016V86.54z M-38.418,21.501
	c-0.901-0.234-1.57-1.046-1.57-2.015c0-0.974,0.669-1.788,1.57-2.019V21.501z M-37.371,86.54v-4.032
	c0.898,0.231,1.565,1.042,1.565,2.015C-35.806,85.494-36.475,86.308-37.371,86.54z M-37.371,21.501v-4.037
	c0.898,0.234,1.565,1.045,1.565,2.019C-35.806,20.455-36.475,21.267-37.371,21.501z M-26.972,82.904l-2.918-0.359V21.464
	l2.918-0.358V82.904z M-19.488,88.648c-0.898-0.232-1.567-1.038-1.567-2.01s0.669-1.787,1.567-2.021V88.648z M-18.443,88.648V84.62
	c0.898,0.231,1.568,1.045,1.568,2.017S-17.544,88.416-18.443,88.648z M-0.559,90.869c-0.896-0.23-1.567-1.043-1.567-2.015
	c0-0.979,0.671-1.79,1.567-2.019V90.869z M0.49,90.869v-4.032c0.902,0.228,1.568,1.039,1.568,2.018
	C2.058,89.826,1.389,90.639,0.49,90.869z M18.374,93.197c-0.899-0.233-1.57-1.046-1.57-2.018s0.671-1.783,1.57-2.014V93.197z
	 M19.42,93.197v-4.033c0.898,0.232,1.564,1.044,1.564,2.016S20.319,92.964,19.42,93.197z M37.305,95.642
	c-0.903-0.236-1.567-1.044-1.567-2.016c0-0.976,0.664-1.784,1.567-2.015V95.642z M38.352,95.642V91.61
	c0.901,0.231,1.57,1.04,1.57,2.016C39.919,94.598,39.25,95.405,38.352,95.642z M56.234,98.206c-0.898-0.233-1.566-1.045-1.566-2.017
	s0.668-1.788,1.566-2.017V98.206z M57.281,98.206V94.17c0.898,0.231,1.567,1.046,1.567,2.018S58.18,97.969,57.281,98.206z
	 M76.215,96.864c0.898,0.237,1.564,1.046,1.564,2.021c0,0.968-0.666,1.78-1.564,2.017V96.864z M75.164,96.864v4.038
	c-0.897-0.232-1.563-1.049-1.563-2.017C73.601,97.91,74.271,97.102,75.164,96.864z"/>
</svg>
