<?xml version="1.0" encoding="utf-8"?>
<!-- Generator: Adobe Illustrator 16.0.0, SVG Export Plug-In . SVG Version: 6.00 Build 0)  -->
<!DOCTYPE svg PUBLIC "-//W3C//DTD SVG 1.1//EN" "http://www.w3.org/Graphics/SVG/1.1/DTD/svg11.dtd">
<svg version="1.1" id="Layer_1" xmlns="http://www.w3.org/2000/svg" xmlns:xlink="http://www.w3.org/1999/xlink" x="0px" y="0px"
	 width="125px" height="125px" viewBox="0 0 125 125" enable-background="new 0 0 125 125" xml:space="preserve">
<g>
	<path fill="#FFFFFF" d="M62.5,58.11c-4.84,0-8.778,3.938-8.778,8.779c0,4.841,3.938,8.78,8.778,8.78
		c4.842,0,8.779-3.938,8.779-8.779C71.279,62.049,67.342,58.11,62.5,58.11z"/>
	<path fill="#FFFFFF" d="M87.486,45.279H77.357c0-4.849-3.931-8.779-8.779-8.779H56.422c-4.849,0-8.778,3.93-8.778,8.779h-10.13
		c-4.85,0-8.779,3.93-8.779,8.779v25.662c0,4.849,3.93,8.779,8.779,8.779h49.973c4.85,0,8.779-3.932,8.779-8.779V54.06
		C96.266,49.209,92.336,45.279,87.486,45.279z M62.5,82.422c-8.564,0-15.532-6.967-15.532-15.531
		c0-8.564,6.968-15.533,15.532-15.533c8.566,0,15.533,6.968,15.533,15.532C78.033,75.453,71.066,82.422,62.5,82.422z"/>
</g>
</svg>
