<?xml version="1.0" encoding="utf-8"?>
<!-- Generator: Adobe Illustrator 16.0.0, SVG Export Plug-In . SVG Version: 6.00 Build 0)  -->
<!DOCTYPE svg PUBLIC "-//W3C//DTD SVG 1.1//EN" "http://www.w3.org/Graphics/SVG/1.1/DTD/svg11.dtd">
<svg version="1.1" id="Layer_1" xmlns="http://www.w3.org/2000/svg" xmlns:xlink="http://www.w3.org/1999/xlink" x="0px" y="0px"
	 width="125px" height="125px" viewBox="0 0 125 125" enable-background="new 0 0 125 125" xml:space="preserve">
<g>
	<g>
		<circle fill="#428BCA" cx="62.502" cy="62.501" r="2.439"/>
		<path fill="#428BCA" d="M62.502,56.488c-0.362,0-0.711,0.038-1.053,0.098l-9.437-8.718c-0.6-0.669-1.738-0.634-2.542,0.088
			c-0.803,0.717-0.968,1.846-0.365,2.519l7.627,10.319c-0.157,0.545-0.247,1.114-0.247,1.708c0,0.87,0.19,1.696,0.524,2.444
			L47.111,79.83c-0.548,0.715-0.299,1.828,0.557,2.48c0.857,0.66,1.997,0.61,2.541-0.108l11.886-13.711
			c0.135,0.015,0.268,0.027,0.407,0.027c3.323,0,6.013-2.692,6.013-6.018C68.515,59.178,65.825,56.488,62.502,56.488z
			 M62.498,66.626c-2.273,0-4.121-1.846-4.121-4.123c0-2.278,1.846-4.123,4.121-4.123c2.28,0,4.126,1.845,4.126,4.123
			S64.777,66.626,62.498,66.626z"/>
	</g>
	<path fill="#428BCA" d="M100.771,66.76c0.026-0.25,0.026-0.49,0.047-0.732c0.067-0.719,0.106-1.445,0.133-2.176
		c0-0.022,0.002-0.043,0.002-0.066c0-0.05,0.006-0.099,0.008-0.145c0.006-0.391,0.035-0.769,0.035-1.167
		c0-0.333-0.029-0.661-0.035-0.994c0-0.089-0.002-0.179-0.008-0.263c-0.002-0.061-0.006-0.115-0.011-0.17
		c-0.025-0.738-0.067-1.486-0.134-2.212c-0.021-0.197-0.017-0.392-0.037-0.591l9.527-7.038c0.356-0.273,0.463-0.771,0.231-1.163
		L97.125,26.951c-0.227-0.389-0.713-0.552-1.121-0.364l-10.841,4.775c-0.289-0.206-0.592-0.381-0.881-0.579
		c-0.172-0.125-0.353-0.234-0.527-0.354c-0.344-0.228-0.68-0.462-1.029-0.68c-0.236-0.141-0.476-0.274-0.713-0.413
		c-0.067-0.045-0.14-0.091-0.211-0.13c-0.093-0.055-0.193-0.101-0.289-0.159c-0.544-0.305-1.094-0.605-1.659-0.894
		c-0.037-0.017-0.075-0.042-0.114-0.065c0,0.011,0,0.011,0,0.011c-0.076-0.041-0.154-0.069-0.229-0.108
		c-0.189-0.097-0.377-0.186-0.563-0.274c-0.307-0.144-0.597-0.301-0.902-0.442l-1.313-11.766c-0.05-0.458-0.429-0.791-0.883-0.791
		H49.15c-0.453,0-0.837,0.333-0.886,0.791l-1.306,11.771c-0.086,0.04-0.172,0.084-0.259,0.123c-0.692,0.313-1.381,0.642-2.063,0.999
		c-0.127,0.07-0.252,0.141-0.381,0.206c-0.369,0.201-0.739,0.388-1.107,0.594c-0.276,0.164-0.537,0.35-0.809,0.519
		c-0.182,0.11-0.369,0.229-0.55,0.343c-0.639,0.407-1.264,0.834-1.869,1.269c-0.03,0.021-0.057,0.039-0.083,0.06l-10.833-4.772
		c-0.419-0.184-0.9-0.03-1.129,0.367L14.468,50.073c-0.225,0.393-0.125,0.895,0.243,1.158l9.518,7.044
		c-0.005,0.06-0.005,0.123-0.014,0.179c-0.015,0.165-0.02,0.326-0.035,0.485c-0.04,0.434-0.07,0.866-0.097,1.292
		c-0.017,0.309-0.046,0.614-0.055,0.919c-0.013,0.241,0,0.487-0.005,0.733c-0.005,0.199-0.022,0.393-0.022,0.59
		c0,0.233,0.015,0.459,0.022,0.687c0.005,0.229-0.007,0.459,0.005,0.691c0.003,0.22,0.023,0.442,0.039,0.659
		c0.022,0.432,0.06,0.861,0.092,1.288c0.011,0.079,0.014,0.149,0.018,0.229c0.016,0.168,0.022,0.343,0.039,0.518
		c0.007,0.06,0.007,0.119,0.014,0.177l-9.519,7.044c-0.368,0.272-0.47,0.765-0.243,1.162l13.406,23.089
		c0.227,0.388,0.709,0.549,1.128,0.371l10.834-4.776c0.02,0.015,0.042,0.027,0.064,0.048c0.672,0.478,1.37,0.95,2.083,1.4
		c0.081,0.053,0.164,0.101,0.243,0.156c0.313,0.192,0.609,0.396,0.923,0.586c1.171,0.669,2.366,1.267,3.574,1.803
		c0.08,0.033,0.153,0.081,0.235,0.121l1.306,11.768c0.049,0.457,0.432,0.79,0.887,0.79H75.85c0.456,0,0.831-0.336,0.883-0.79
		l1.313-11.768c0.248-0.113,0.479-0.244,0.728-0.363c0.326-0.156,0.646-0.311,0.967-0.477v0.022c0.221-0.11,0.429-0.244,0.651-0.358
		c0.101-0.057,0.21-0.106,0.311-0.158c0.094-0.044,0.182-0.096,0.273-0.148c0.115-0.063,0.232-0.118,0.346-0.183
		c0-0.007-0.005-0.007-0.007-0.013c0.165-0.092,0.328-0.165,0.484-0.259c0.073-0.044,0.138-0.085,0.202-0.121
		c0.575-0.342,1.135-0.7,1.692-1.064c0.194-0.131,0.388-0.252,0.577-0.379c0.294-0.207,0.602-0.378,0.892-0.588L96,98.417
		c0.41,0.177,0.896,0.023,1.123-0.364l13.404-23.097c0.231-0.398,0.126-0.893-0.23-1.163L100.771,66.76z M87.42,64.926h6.122
		c-0.591,7.64-3.915,14.487-9.017,19.6c-5.193,5.183-12.177,8.534-19.955,9.042v-5.795c0-1.271-1.033-2.31-2.312-2.31
		c-1.274,0-2.309,1.038-2.309,2.31v5.762C52.36,92.92,45.56,89.6,40.477,84.525c-5.107-5.109-8.434-11.96-9.019-19.6h5.641
		c1.272,0,2.307-1.036,2.307-2.311c0-1.276-1.034-2.308-2.307-2.308h-5.658c0.54-7.732,3.881-14.668,9.038-19.828
		c5.081-5.082,11.882-8.396,19.473-9.009v5.98c0,1.274,1.034,2.311,2.309,2.311c1.276,0,2.312-1.035,2.312-2.311v-6.019
		c7.78,0.508,14.765,3.859,19.955,9.046c5.154,5.16,8.492,12.095,9.032,19.828h-6.138c-1.274,0-2.311,1.031-2.311,2.304
		C85.111,63.89,86.146,64.926,87.42,64.926z"/>
</g>
</svg>
