<?xml version="1.0" encoding="utf-8"?>
<!-- Generator: Adobe Illustrator 16.0.0, SVG Export Plug-In . SVG Version: 6.00 Build 0)  -->
<!DOCTYPE svg PUBLIC "-//W3C//DTD SVG 1.1//EN" "http://www.w3.org/Graphics/SVG/1.1/DTD/svg11.dtd">
<svg version="1.1" id="Your_Icon" xmlns="http://www.w3.org/2000/svg" xmlns:xlink="http://www.w3.org/1999/xlink" x="0px" y="0px"
	 width="125px" height="125px" viewBox="0 0 125 125" enable-background="new 0 0 125 125" xml:space="preserve">
<path fill="#428BCA" d="M82.447,28.645c-0.092-0.566-0.482-1.04-1.02-1.237c-3.277-1.196-7.607-2.381-12.256-2.384
	c-3.646-0.001-7.51,0.743-11.102,2.837l0,0c-1.808,1.051-3.232,2.38-4.317,3.876c-1.634,2.247-2.502,4.833-2.992,7.458
	c-0.396,2.123-0.544,4.286-0.624,6.383c-0.936,0.022-1.997,0.029-2.963,0.029c-0.846,0-1.618-0.005-2.182-0.011
	c-0.28-0.004-0.508-0.006-0.666-0.008c-0.157-0.003-0.241-0.004-0.244-0.004c-0.424-0.006-0.84,0.162-1.143,0.459
	c-0.302,0.299-0.474,0.714-0.471,1.14l0.063,10.56c0.006,0.88,0.717,1.654,1.596,1.654c0.001,0,0.424,0,1.109,0
	c1.555,0,4.457-0.067,6.688-0.023c0.33,7.252,0.408,18.125,0.408,26.561c0,3.555-0.016,6.654-0.027,8.887
	c-0.008,1.113-0.014,1.998-0.02,2.611s-0.008,0.941-0.008,0.943c-0.004,0.424,0.162,0.834,0.463,1.135
	c0.299,0.301,0.709,0.469,1.135,0.467l14.135-0.072c0.424-0.002,0.824-0.172,1.123-0.475c0.299-0.301,0.461-0.705,0.457-1.131
	c0,0-0.074-8.691-0.16-18.066c-0.074-8.063-0.156-16.617-0.203-20.603c0.871-0.015,1.887-0.021,2.875-0.02
	c1.156,0,2.279,0.007,3.113,0.014c0.416,0.003,0.762,0.007,1,0.01c0.24,0.004,0.375,0.005,0.375,0.005
	c0.426,0.006,0.834-0.159,1.137-0.457c0.303-0.299,0.475-0.704,0.475-1.129l0.02-9.781c0.002-0.425-0.166-0.97-0.467-1.27
	c-0.301-0.299-0.703-0.604-1.131-0.604c0,0-0.189,0-0.527,0s-0.818,0.144-1.396,0.144c-1.771,0-4.455,0.063-6.578,0.027
	c0.039-1.085,0.139-2.008,0.299-2.826c0.152-0.796,0.363-1.44,0.613-1.972c0.189-0.398,0.398-0.712,0.621-0.976
	c0.34-0.394,0.709-0.659,1.184-0.857c0.473-0.196,1.066-0.313,1.83-0.314c1.354-0.004,3.211,0.396,5.537,1.295
	c0.018,0.007,0.035,0.01,0.055,0.017c0.02,0.006,0.035,0.017,0.053,0.021c0.035,0.011,0.068,0.013,0.104,0.021
	c0.055,0.013,0.105,0.024,0.16,0.031c0.053,0.007,0.104,0.009,0.152,0.011c0.053,0.001,0.104,0.002,0.156-0.001
	c0.053-0.004,0.104-0.012,0.15-0.021c0.053-0.008,0.104-0.018,0.15-0.031c0.049-0.013,0.096-0.029,0.143-0.048
	c0.051-0.017,0.098-0.036,0.145-0.059c0.045-0.022,0.086-0.047,0.129-0.073c0.045-0.027,0.09-0.056,0.131-0.087
	c0.039-0.029,0.076-0.062,0.111-0.096c0.041-0.036,0.078-0.072,0.111-0.111c0.033-0.038,0.064-0.078,0.096-0.119
	c0.029-0.042,0.063-0.085,0.09-0.131c0.023-0.044,0.049-0.093,0.072-0.142c0.014-0.032,0.031-0.062,0.047-0.096
	c0.008-0.018,0.01-0.036,0.018-0.057c0.004-0.017,0.016-0.032,0.021-0.05c0.32-1.059,0.871-2.831,1.344-4.702
	c0.236-0.938,0.455-1.902,0.617-2.831c0.162-0.93,0.27-1.818,0.271-2.646C82.527,29.354,82.506,28.998,82.447,28.645z"/>
</svg>
