<?xml version="1.0" encoding="utf-8"?>
<!-- Generator: Adobe Illustrator 16.0.0, SVG Export Plug-In . SVG Version: 6.00 Build 0)  -->
<!DOCTYPE svg PUBLIC "-//W3C//DTD SVG 1.1//EN" "http://www.w3.org/Graphics/SVG/1.1/DTD/svg11.dtd">
<svg version="1.1" id="Your_Icon" xmlns="http://www.w3.org/2000/svg" xmlns:xlink="http://www.w3.org/1999/xlink" x="0px" y="0px"
	 width="125px" height="125px" viewBox="-12.5 -12.5 125 125" enable-background="new -12.5 -12.5 125 125" xml:space="preserve">
<g>
	<polygon fill="#FFFFFF" points="52.387,65.879 65.785,65.879 65.785,60.586 57.682,60.586 	"/>
	<polygon fill="#FFFFFF" points="41.805,76.463 65.785,76.463 65.785,71.17 47.096,71.17 	"/>
	<polygon fill="#FFFFFF" points="54.773,39.416 34.214,39.416 34.214,44.707 49.482,44.707 	"/>
	<polygon fill="#FFFFFF" points="34.214,52.363 37.143,55.293 38.898,55.293 44.189,50 34.214,50 	"/>
	<polygon fill="#FFFFFF" points="65.785,52.482 62.975,55.293 65.785,55.293 	"/>
	<polygon fill="#FFFFFF" points="65.359,28.83 34.214,28.83 34.214,34.123 60.066,34.123 	"/>
	<polygon fill="#FFFFFF" points="26.538,44.688 28.729,46.879 28.829,46.98 28.829,18.246 71.168,18.246 71.168,23.02 
		71.268,22.923 73.459,20.731 75.652,22.924 76.463,23.736 76.463,12.953 23.536,12.953 23.536,47.693 24.348,46.88 	"/>
	<polygon fill="#FFFFFF" points="71.168,81.756 28.829,81.756 28.829,71.053 23.536,65.756 23.536,87.047 76.463,87.047 
		76.463,41.804 71.168,47.097 	"/>
	<polygon fill="#FFFFFF" points="76.463,28.121 73.459,25.114 71.168,27.402 65.785,32.787 64.449,34.123 59.158,39.416 
		53.863,44.707 48.572,50 43.28,55.293 38.02,60.551 28.829,51.361 26.538,49.072 23.536,52.076 18.888,56.725 23.536,61.373 
		28.829,66.668 34.214,72.057 38.022,75.865 42.715,71.17 45.678,68.209 48.006,65.879 53.299,60.586 58.594,55.293 63.885,50 
		71.168,42.714 76.463,37.423 81.111,32.773 	"/>
</g>
</svg>
