<?xml version="1.0" encoding="utf-8"?>
<!-- Generator: Adobe Illustrator 16.0.0, SVG Export Plug-In . SVG Version: 6.00 Build 0)  -->
<!DOCTYPE svg PUBLIC "-//W3C//DTD SVG 1.1//EN" "http://www.w3.org/Graphics/SVG/1.1/DTD/svg11.dtd">
<svg version="1.1" id="Livello_1" xmlns="http://www.w3.org/2000/svg" xmlns:xlink="http://www.w3.org/1999/xlink" x="0px" y="0px"
	 width="125px" height="125px" viewBox="0 0 125 125" enable-background="new 0 0 125 125" xml:space="preserve">
<path fill="#428BCA" d="M62.5,3C43.092,3,27.355,18.736,27.355,38.144c0,0.416,0.013,0.841,0.03,1.266
	c0.132,3.692,0.827,7.237,2.013,10.557C36.897,74.611,62.5,106.762,62.5,106.762s25.603-32.147,33.102-56.792
	c1.188-3.318,1.88-6.867,2.015-10.559c0.021-0.427,0.028-0.85,0.028-1.266C97.646,18.736,81.91,3,62.5,3z M62.5,55.357
	c-9.504,0-17.213-7.708-17.213-17.213c0-9.504,7.707-17.212,17.213-17.212c9.507,0,17.213,7.707,17.213,17.212
	C79.715,47.649,72.007,55.357,62.5,55.357z"/>
</svg>
