<?xml version="1.0" encoding="utf-8"?>
<!-- Generator: Adobe Illustrator 16.0.0, SVG Export Plug-In . SVG Version: 6.00 Build 0)  -->
<!DOCTYPE svg PUBLIC "-//W3C//DTD SVG 1.1//EN" "http://www.w3.org/Graphics/SVG/1.1/DTD/svg11.dtd">
<svg version="1.1" id="Livello_1" xmlns="http://www.w3.org/2000/svg" xmlns:xlink="http://www.w3.org/1999/xlink" x="0px" y="0px"
	 width="125px" height="125px" viewBox="0 0 125 125" enable-background="new 0 0 125 125" xml:space="preserve">
<path fill="#FFFFFF" d="M62.5,19.119c-15.454,0-27.983,13.158-27.983,29.386c0,0.348,0.01,0.703,0.024,1.059
	c0.105,3.087,0.659,6.052,1.603,8.828C42.114,78.998,62.5,105.881,62.5,105.881s20.386-26.88,26.356-47.488
	c0.946-2.774,1.497-5.742,1.604-8.829c0.017-0.357,0.022-0.711,0.022-1.059C90.485,32.277,77.955,19.119,62.5,19.119z M62.5,62.898
	c-7.567,0-13.706-6.446-13.706-14.393c0-7.947,6.137-14.392,13.706-14.392c7.57,0,13.706,6.444,13.706,14.392
	C76.207,56.453,70.07,62.898,62.5,62.898z"/>
</svg>
