<?xml version="1.0" encoding="utf-8"?>
<!-- Generator: Adobe Illustrator 16.0.0, SVG Export Plug-In . SVG Version: 6.00 Build 0)  -->
<!DOCTYPE svg PUBLIC "-//W3C//DTD SVG 1.1//EN" "http://www.w3.org/Graphics/SVG/1.1/DTD/svg11.dtd">
<svg version="1.1" id="Calque_1" xmlns="http://www.w3.org/2000/svg" xmlns:xlink="http://www.w3.org/1999/xlink" x="0px" y="0px"
	 width="125px" height="125px" viewBox="-12.5 -12.5 125 125" enable-background="new -12.5 -12.5 125 125" xml:space="preserve">
<g>
	<path fill="#FFFFFF" d="M64.172,61.924c-1.634-2.537-3.619-4.184-6.455-5.117c0,0-2.139-1.1-7.728-1.1
		c-5.592,0-7.732,1.1-7.732,1.1c-2.835,0.943-4.817,2.58-6.456,5.117c-0.648,0.996-0.998,3.004-1.022,4.076
		c0.009,0.279,0,0.604,0,0.926v1.85V67.5c0,2.045,1.396,3.699,3.118,3.699h24.177c1.725,0,3.12-1.654,3.12-3.699v1.275v-1.85
		c0-0.322-0.006-0.646,0-0.926C65.17,64.928,64.821,62.92,64.172,61.924 M41.464,41.673c0,4.74,2.955,11.702,8.525,11.702
		c5.472,0,8.519-6.962,8.519-11.702c0-4.741-3.813-8.59-8.519-8.59C45.281,33.083,41.464,36.933,41.464,41.673"/>
	<g>
		<path fill="#FFFFFF" d="M40.587,54.641c-1.374-1.746-3.022-2.941-5.229-3.666c0,0-2-1.029-7.223-1.029
			c-5.227,0-7.226,1.029-7.226,1.029c-2.649,0.879-4.504,2.41-6.034,4.779c-0.605,0.934-0.934,2.811-0.956,3.811
			c0.008,0.264,0,0.564,0,0.865v0.535c0,1.91,1.304,3.459,2.915,3.459h14.592c0.207-1.209,0.576-2.539,1.101-3.346
			C34.578,57.9,37.062,55.842,40.587,54.641z"/>
		<path fill="#FFFFFF" d="M28.135,47.768c5.113,0,7.963-6.511,7.963-10.939c0-4.431-3.566-8.028-7.963-8.028
			c-4.4,0-7.968,3.598-7.968,8.028C20.168,41.258,22.931,47.768,28.135,47.768z"/>
	</g>
	<g>
		<path fill="#FFFFFF" d="M59.413,54.641c1.373-1.746,3.021-2.941,5.228-3.666c0,0,2-1.029,7.223-1.029
			c5.228,0,7.225,1.029,7.225,1.029c2.65,0.879,4.505,2.41,6.036,4.779c0.607,0.934,0.934,2.811,0.956,3.811
			c-0.008,0.264,0,0.564,0,0.865v0.535c0,1.91-1.305,3.459-2.916,3.459H68.573c-0.206-1.209-0.574-2.539-1.102-3.346
			C65.421,57.9,62.939,55.842,59.413,54.641z"/>
		<path fill="#FFFFFF" d="M71.866,47.768c-5.115,0-7.963-6.511-7.963-10.939c0-4.431,3.565-8.028,7.963-8.028
			c4.398,0,7.968,3.598,7.968,8.028C79.834,41.258,77.07,47.768,71.866,47.768z"/>
	</g>
</g>
</svg>
