<?xml version="1.0" encoding="utf-8"?>
<!-- Generator: Adobe Illustrator 16.0.0, SVG Export Plug-In . SVG Version: 6.00 Build 0)  -->
<!DOCTYPE svg PUBLIC "-//W3C//DTD SVG 1.1//EN" "http://www.w3.org/Graphics/SVG/1.1/DTD/svg11.dtd">
<svg version="1.1" id="Layer_1" xmlns="http://www.w3.org/2000/svg" xmlns:xlink="http://www.w3.org/1999/xlink" x="0px" y="0px"
	 width="125px" height="125px" viewBox="-14.908 -12.5 125 125" enable-background="new -14.908 -12.5 125 125"
	 xml:space="preserve">
<g>
	<path fill="#FFFFFF" d="M18.53,26.729c-0.013-0.018-0.003-0.04-0.018-0.055c-0.15-0.158-0.387-0.185-0.57-0.055l-3.486,2.497
		c-0.199,0.142-0.195,0.365-0.092,0.587c0.694,1.49,2.569,4.74,4.698,6.57c0.186,0.16,0.388,0.234,0.587,0.092l3.488-2.478
		c0.185-0.131,0.234-0.355,0.128-0.55c-0.009-0.016-0.026-0.041-0.037-0.055c1.081-3.716,5.17-5.508,9.378-4.331
		c3.623,1.013,6.129,5.524,8.093,8.368c0.064,0.093,2.496,3.744,4.881,7.341l3.945-5.322l-3.908-5.065
		c-12.074-15.662-8.54-20.157,12.425-15.288c-4.327-2.971-9.294-6-15.637-5.983c-4.34,0.013-9.326,1.446-15.196,5.286
		C23.423,21.053,25.71,25.708,18.53,26.729z"/>
	<path fill="#FFFFFF" d="M73.128,22.342l1.356-6.386l-5.395,3.376l-6.662,4.698L22.732,77.418c-2.006,2.755-0.577,5.725,1.156,7.011
		c1.496,1.11,4.651,2.093,6.974-0.955c13.243-17.742,26.5-35.595,39.734-53.387L73.128,22.342z M61.639,27.976l0.588-0.037l0,0
		L29.064,71.967L61.639,27.976z M64.52,30.215l0.44,0.129L31.964,73.931L64.52,30.215z M24.329,83.896
		c-1.751-1.303-2.337-3.584-1.468-5.359l6.992,5.213C28.402,85.092,26.08,85.197,24.329,83.896z M24.017,76.609l0.092-0.458
		l0.496-0.515l7.451,5.563L24.017,76.609z M25.136,75.123l0.074-0.478l0.514-0.514l7.451,5.561L25.136,75.123z M26.238,73.619
		l0.092-0.479l0.515-0.512l7.45,5.559L26.238,73.619z M34.881,76.023l32.558-43.899l0.846-0.349L34.881,76.023z M69.11,30.711
		l-1.358,0.661l-0.661-1.505L64.614,29.5l-0.441-2.514l-2.258,0.312l0.313-1.706l0.569-1.064l6.919-4.771l0.861,0.881l2.002,1.101
		l-2.625,8.112L69.11,30.711z"/>
	<path fill="#FFFFFF" d="M57.509,49.724c-1.493,2.009-3.003,4.031-4.495,6.039l21.619,31.033c0.914,1.046,6.768-2.15,6.221-4.57
		L57.509,49.724z"/>
</g>
</svg>
