<?xml version="1.0" encoding="utf-8"?>
<!-- Generator: Adobe Illustrator 16.0.0, SVG Export Plug-In . SVG Version: 6.00 Build 0)  -->
<!DOCTYPE svg PUBLIC "-//W3C//DTD SVG 1.1//EN" "http://www.w3.org/Graphics/SVG/1.1/DTD/svg11.dtd">
<svg version="1.1" id="Layer_1" xmlns="http://www.w3.org/2000/svg" xmlns:xlink="http://www.w3.org/1999/xlink" x="0px" y="0px"
	 width="125px" height="125px" viewBox="-12.5 -12.5 125 125" enable-background="new -12.5 -12.5 125 125" xml:space="preserve">
<path fill="#FFFFFF" d="M85.857,6.124v62.304l-0.065,25.449H14.143V6.124H85.857z M81.198,90.205V10.702H19.09v79.359h34.721
	L81.198,90.205z M26.829,52.07v2.67h48.459v-2.67H26.829z M26.718,45.774v2.672h48.46v-2.672H26.718z M26.798,77.801v2.676h23.167
	v-2.676H26.798z M26.772,65.256v2.672h23.167v-2.672H26.772z M26.748,71.51v2.674h23.166V71.51H26.748z M26.718,58.961v2.674h23.17
	v-2.674H26.718z M51.879,39.551v2.672h23.164v-2.672H51.879z M51.854,27.002v2.67h23.167v-2.67H51.854z M51.826,33.258v2.672h23.17
	v-2.672H51.826z M51.797,20.708v2.673h23.169v-2.673H51.797z M34.197,22.257c-1.797,1.571-2.638,3.538-2.919,6.85
	c2.021,0.785,3.143,2.414,3.143,4.434c0,2.47-1.963,4.436-4.433,4.436c-3.145,0-5.277-2.583-5.277-6.457
	c0-5.277,3.311-9.039,9.487-10.667V22.257z M47.391,22.257c-1.798,1.571-2.639,3.538-2.919,6.85
	c2.021,0.785,3.143,2.414,3.143,4.434c0,2.47-1.964,4.436-4.433,4.436c-3.145,0-5.278-2.583-5.278-6.457
	c0-5.277,3.312-9.039,9.488-10.667V22.257z M54.575,79.09c1.795-1.572,2.637-3.537,2.918-6.85c-2.021-0.787-3.145-2.414-3.145-4.436
	c0-2.471,1.965-4.434,4.437-4.434c3.143,0,5.274,2.582,5.274,6.455c0,5.277-3.311,9.039-9.484,10.666V79.09z M67.767,79.09
	c1.797-1.572,2.639-3.537,2.92-6.85c-2.022-0.787-3.145-2.414-3.145-4.436c0-2.471,1.963-4.434,4.436-4.434
	c3.144,0,5.275,2.582,5.275,6.455c0,5.277-3.312,9.039-9.486,10.666V79.09z"/>
</svg>
