<?xml version="1.0" encoding="utf-8"?>
<!-- Generator: Adobe Illustrator 16.0.0, SVG Export Plug-In . SVG Version: 6.00 Build 0)  -->
<!DOCTYPE svg PUBLIC "-//W3C//DTD SVG 1.1//EN" "http://www.w3.org/Graphics/SVG/1.1/DTD/svg11.dtd">
<svg version="1.1" id="Layer_1" xmlns="http://www.w3.org/2000/svg" xmlns:xlink="http://www.w3.org/1999/xlink" x="0px" y="0px"
	 width="125px" height="125px" viewBox="-12.5 -12.5 125 125" enable-background="new -12.5 -12.5 125 125" xml:space="preserve">
<path fill="#428BCA" d="M9.199,58.437c-0.007,0.211-0.031,0.416-0.031,0.629c0,0.07,0.009,0.14,0.01,0.209
	c-0.001,0.14-0.01,0.279-0.01,0.419l0.03-0.021c0.322,9.383,8.013,16.896,17.473,16.896c9.666,0,17.503-7.836,17.503-17.503
	c0-8.821-6.531-16.096-15.019-17.306c2.109-6.992,8.591-12.08,16.275-12.08v-6.249C25.812,23.434,9.863,38.979,9.199,58.437z"/>
<path fill="#428BCA" d="M54.604,58.437c-0.01,0.211-0.033,0.416-0.033,0.629c0,0.07,0.012,0.14,0.012,0.209
	c-0.004,0.14-0.012,0.279-0.012,0.419l0.033-0.021c0.32,9.383,8.012,16.896,17.471,16.896c9.668,0,17.502-7.836,17.502-17.503
	c0-8.821-6.531-16.096-15.018-17.306c2.109-6.992,8.59-12.08,16.273-12.08v-6.249C71.213,23.434,55.268,38.979,54.604,58.437z"/>
</svg>
