<?xml version="1.0" encoding="utf-8"?>
<!-- Generator: Adobe Illustrator 16.0.0, SVG Export Plug-In . SVG Version: 6.00 Build 0)  -->
<!DOCTYPE svg PUBLIC "-//W3C//DTD SVG 1.1//EN" "http://www.w3.org/Graphics/SVG/1.1/DTD/svg11.dtd">
<svg version="1.1" id="Web_Design" xmlns="http://www.w3.org/2000/svg" xmlns:xlink="http://www.w3.org/1999/xlink" x="0px" y="0px"
	 width="125px" height="125px" viewBox="0 0 125 125" enable-background="new 0 0 125 125" xml:space="preserve">
<g>
	<path fill="#428BCA" d="M61.95,61.966c-4.854-4.663-11.547-7.491-18.815-7.333c-1.589,0.029-3.016,0.704-4.036,1.768
		c-1.022,1.067-1.639,2.519-1.603,4.108c0.064,3.182,2.697,5.707,5.878,5.639l0.001-0.001c4.124-0.083,7.837,1.49,10.602,4.134
		c2.758,2.653,4.484,6.297,4.575,10.417c0.065,3.183,2.697,5.706,5.88,5.639s5.704-2.697,5.639-5.878
		C69.922,73.188,66.815,66.622,61.95,61.966z"/>
	<path fill="#428BCA" d="M77.524,45.725c-8.985-8.624-21.327-13.837-34.771-13.553c-1.818,0.038-3.451,0.81-4.617,2.026
		c-1.168,1.217-1.868,2.88-1.832,4.696c0.076,3.638,3.088,6.525,6.721,6.448l0.002-0.002c9.848-0.2,18.785,3.583,25.379,9.895
		c6.585,6.327,10.741,15.097,10.948,24.938c0.079,3.634,3.088,6.523,6.723,6.447c3.638-0.076,6.522-3.086,6.446-6.724
		C92.249,66.455,86.523,54.344,77.524,45.725z"/>
	<circle fill="#428BCA" cx="42.188" cy="83.127" r="9.713"/>
</g>
</svg>
