<?xml version="1.0" encoding="utf-8"?>
<!-- Generator: Adobe Illustrator 16.0.0, SVG Export Plug-In . SVG Version: 6.00 Build 0)  -->
<!DOCTYPE svg PUBLIC "-//W3C//DTD SVG 1.1//EN" "http://www.w3.org/Graphics/SVG/1.1/DTD/svg11.dtd">
<svg version="1.1" id="Layer_1" xmlns="http://www.w3.org/2000/svg" xmlns:xlink="http://www.w3.org/1999/xlink" x="0px" y="0px"
	 width="125px" height="125px" viewBox="-12.5 -12.5 125 125" enable-background="new -12.5 -12.5 125 125" xml:space="preserve">
<g id="Captions">
</g>
<g id="Your_Icon">
	<g>
		<path fill="#FFFFFF" d="M86.938,56.018H27.069V45.137h59.869V56.018z M29.081,54.006h55.845v-6.858H29.081V54.006z"/>
	</g>
	<path fill="#FFFFFF" d="M91.107,59.592H33.137v-6.403l56.539-5.823c0.209-0.021,0.259-0.208,0.236-0.417l-1.357-12.232
		c-0.01-0.101-0.06-0.193-0.137-0.257c-0.079-0.064-0.18-0.095-0.279-0.083l-12.407,1.272c-29.277,3.328-53.425,8.273-64.727,10.802
		c-0.422,2.641-2.316,14.655-2.493,19.179h22.693h1.932h57.971c0.212,0,0.381-0.171,0.381-0.381V60.34
		C91.488,60.13,91.319,59.592,91.107,59.592z M15.757,53.728c-0.553,0-1-0.448-1-0.999c0-0.552,0.447-1,1-1
		c0.551,0,0.998,0.448,0.998,1C16.755,53.279,16.307,53.728,15.757,53.728z"/>
	<path fill="#FFFFFF" d="M32.582,53.36"/>
	<path fill="#FFFFFF" d="M10.403,52.421"/>
</g>
</svg>
