<?xml version="1.0" encoding="utf-8"?>
<!-- Generator: Adobe Illustrator 16.0.0, SVG Export Plug-In . SVG Version: 6.00 Build 0)  -->
<!DOCTYPE svg PUBLIC "-//W3C//DTD SVG 1.1//EN" "http://www.w3.org/Graphics/SVG/1.1/DTD/svg11.dtd">
<svg version="1.1" id="Your_Icon" xmlns="http://www.w3.org/2000/svg" xmlns:xlink="http://www.w3.org/1999/xlink" x="0px" y="0px"
	 width="125px" height="125px" viewBox="0 0 125 125" enable-background="new 0 0 125 125" xml:space="preserve">
<path fill="#428BCA" d="M62.498,19.904c-23.521,0-42.594,19.069-42.594,42.594c0,23.527,19.069,42.598,42.594,42.598
	c23.528,0,42.598-19.07,42.598-42.598C105.096,38.974,86.026,19.904,62.498,19.904z M84.261,47.622
	c0.06-0.068,0.118-0.161,0.207-0.179c0,0-0.018,0.027-0.15,0.273c0.066,0.109,0.133,0.215,0.193,0.331
	c2.335,0.45,4.053,1.033,4.053,1.409c0,0.298-1.055,0.878-2.622,1.499c0.663,1.598,1.207,3.333,1.588,5.168
	c1.181,5.683,0.588,11.071-1.296,14.868c-3.175,10.492-12.916,18.136-24.442,18.136c-10.84,0-20.076-6.76-23.788-16.281
	c4.239,3.135,9.466,5.013,15.144,5.013c3.162,0,6.183-0.602,8.982-1.669c-3.043,0.216-6.178-0.185-9.218-1.344
	C42.661,70.97,40.754,58.707,40.754,58.707c-0.763-4.9,0.337-5.236,2.446-0.747c0,0,2.497,5.319,9.827,8.099
	c0.194,0.072,0.388,0.125,0.59,0.181c-0.128-0.056-0.255-0.108-0.38-0.175c-9.671-5.154-9.996-17.561-9.996-17.561
	c-0.132-4.957,1.003-5.149,2.521-0.434c0,0,1.795,5.595,8.716,9.282c3.472,1.857,7.217,2.654,10.893,2.542
	c-1.712-9.533,1.519-18.089,7.438-19.326c2.662-0.552,5.423,0.473,7.855,2.622c0.699-0.09,1.483-0.087,2.307,0.036
	c3.072,0.463,5.592,1.218,5.592,1.678c0,0.413-2.011,1.355-4.623,2.213C84.056,47.293,84.158,47.449,84.261,47.622z"/>
</svg>
