<?xml version="1.0" encoding="utf-8"?>
<!-- Generator: Adobe Illustrator 16.0.0, SVG Export Plug-In . SVG Version: 6.00 Build 0)  -->
<!DOCTYPE svg PUBLIC "-//W3C//DTD SVG 1.1//EN" "http://www.w3.org/Graphics/SVG/1.1/DTD/svg11.dtd">
<svg version="1.1" id="Your_Icon" xmlns="http://www.w3.org/2000/svg" xmlns:xlink="http://www.w3.org/1999/xlink" x="0px" y="0px"
	 width="125px" height="125px" viewBox="0 0 125 125" enable-background="new 0 0 125 125" xml:space="preserve">
<path fill="#428BCA" d="M102.023,37.6c-0.348-0.442-0.901-0.664-1.457-0.584c-0.33,0.047-0.748,0.129-1.287,0.247
	c-0.502,0.108-1.115,0.254-1.799,0.424c0.262-0.6,0.481-1.224,0.68-1.875c0.32-1.07,0.588-2.208,0.865-3.415
	c0.14-0.604-0.088-1.235-0.584-1.611c-0.498-0.375-1.166-0.422-1.711-0.122c-2.452,1.354-4.285,2.212-5.871,2.772
	c-1.336,0.472-2.508,0.741-3.797,0.924c-1.512-1.425-3.207-2.521-5.026-3.271c-2.054-0.852-4.253-1.267-6.5-1.267
	c-2.688,0.001-5.444,0.591-8.138,1.727l0,0c-1.31,0.552-2.525,1.371-3.627,2.371c-1.649,1.503-3.041,3.418-4.037,5.553
	c-0.994,2.135-1.594,4.492-1.596,6.881c0,0.251,0.01,0.503,0.021,0.753c-0.042-0.011-0.081-0.021-0.122-0.032
	c-2.858-0.758-7.262-2.258-11.632-4.207c-1.792-0.796-4.27-2.386-6.687-4.434c-2.425-2.045-4.81-4.556-6.533-7.167
	c-0.26-0.396-0.684-0.65-1.153-0.698s-0.937,0.118-1.271,0.452c-0.75,0.746-1.385,1.438-1.929,2.127
	c-0.813,1.032-1.418,2.076-1.825,3.213c-0.41,1.137-0.624,2.337-0.755,3.711c-0.089,0.927-0.147,1.924-0.147,2.953
	c0.004,2.271,0.283,4.706,1.257,6.914c-0.742,0.089-1.332,0.69-1.384,1.448c-0.041,0.593-0.062,1.173-0.062,1.742
	c-0.003,5.123,1.631,9.293,4.195,12.188c0.25,0.285,0.511,0.549,0.778,0.811c-0.001,0.012-0.003,0.021-0.003,0.035
	c-0.003,0.104-0.004,0.203-0.004,0.307c-0.001,1.955,0.505,3.791,1.361,5.414c1.286,2.438,3.329,4.416,5.685,5.857
	c0.868,0.531,1.781,0.99,2.722,1.373c-3.961,1.266-7.227,1.557-9.918,1.559c-1.195,0-2.279-0.061-3.271-0.117
	c-0.99-0.063-1.888-0.127-2.73-0.127c-0.201,0-0.398,0.006-0.593,0.014c-0.474,0.021-0.906,0.252-1.188,0.629
	c-0.283,0.379-0.381,0.857-0.27,1.318c0.466,1.895,1.593,3.621,3.148,5.145c2.345,2.283,5.687,4.166,9.701,5.514
	c4.015,1.338,8.707,2.131,13.744,2.131c7.343,0,15.427-1.689,23.136-5.881c7.044-3.842,12.904-10.129,16.428-17.139
	c1.217-2.424,2.545-5.557,3.582-8.887c1.035-3.33,1.787-6.843,1.789-10.088c0-1.102-0.091-2.172-0.294-3.197
	c0.892-0.641,1.688-1.265,2.408-1.896c1.427-1.252,2.553-2.546,3.489-3.999c0.938-1.455,1.688-3.053,2.435-4.938
	C102.459,38.632,102.373,38.042,102.023,37.6z"/>
</svg>
