<?xml version="1.0" encoding="utf-8"?>
<!-- Generator: Adobe Illustrator 16.0.0, SVG Export Plug-In . SVG Version: 6.00 Build 0)  -->
<svg version="1.2" baseProfile="tiny" id="Layer_1" xmlns="http://www.w3.org/2000/svg" xmlns:xlink="http://www.w3.org/1999/xlink"
	 x="0px" y="0px" width="1000px" height="1000px" viewBox="0 0 1000 1000" xml:space="preserve">
<g>
	<path fill="#CC7809" d="M496.846,134.989c35.138,0,63.651,28.492,63.651,63.654c0,35.162-28.514,63.581-63.651,63.581
		c-35.087,0-63.558-28.419-63.558-63.581C433.288,163.481,461.781,134.989,496.846,134.989z"/>
	<path fill="#CC7809" d="M768.939,353.976c-15.935-8.239-35.552-1.984-43.79,13.953l-16.083,31.117l-92.734-101.464
		c-1.941-2.086-4.12-3.777-6.401-5.247c-8.876-7.284-23.588-12.481-46.785-13.929h-25.744v196.162h-79.346V278.357l-149.867,0.222
		l66.301-118.702c8.459-15.104,4.413-33.74-8.653-44.234L498.29,51.817c4.979-2.402,7.063-8.385,4.66-13.339
		c-2.402-4.978-8.336-7.085-13.341-4.682l-160.85,77.53c-0.074,0.025-0.074,0.05-0.122,0.099
		c-6.228,2.992-11.622,7.848-15.251,14.319l-95.433,170.88c-6.081,10.836-5.932,24.102,0.369,34.817
		c6.3,10.691,17.776,17.263,30.185,17.263l123.777-0.197v126.058h-49.36l20.523,165.042h60.319l0.418,295.784H283.669v31.805
		h420.053v-31.83H592.178v-295.81h58.996l20.499-165.041H621.85V400l70.687,77.285c6.157,6.793,14.909,10.57,23.959,10.57
		c1.423,0,2.846-0.097,4.267-0.27c10.518-1.398,19.737-7.845,24.592-17.312l37.516-72.482
		C791.108,381.832,784.88,362.215,768.939,353.976z M512.881,935.367h-29.35v-295.81h29.35V935.367z M649.015,494.524
		l-15.52,125.027H361.104l-15.549-125.027H649.015z"/>
</g>
</svg>
