<?xml version="1.0" encoding="utf-8"?>
<!-- Generator: Adobe Illustrator 16.0.0, SVG Export Plug-In . SVG Version: 6.00 Build 0)  -->
<svg version="1.2" baseProfile="tiny" id="Layer_1" xmlns="http://www.w3.org/2000/svg" xmlns:xlink="http://www.w3.org/1999/xlink"
	 x="0px" y="0px" width="1000px" height="1000px" viewBox="0 0 1000 1000" xml:space="preserve">
<g>
	<path fill="#6C2DC7" d="M423.623,174.195c0,0,27.712-28.837,71.426-28.208c43.865,0.504,67.285,25.59,67.285,25.59l33.737-90.17
		l-69.467,18.776l-31.491-54.25l-34.082,55.757l-71.34-22.458L423.623,174.195z"/>
	<path fill="#6C2DC7" d="M495.896,175.176c42.918-0.261,77.901,34.434,78.083,77.335c0.186,42.955-34.501,77.8-77.423,78.011
		c-42.9,0.179-77.844-34.388-78-77.318C418.344,210.229,452.968,175.333,495.896,175.176z"/>
	
		<rect x="143.606" y="591.096" transform="matrix(-1 0.0042 -0.0042 -1 402.0876 1544.0753)" fill="#6C2DC7" width="111.605" height="362.735"/>
	<path fill="#6C2DC7" d="M176.117,571.706l139.821-0.54l0,0l52.227-0.269l-0.532-110.14l32.459-0.106l0.728,157.013l-69.847,0.252
		c-24.591,0.068-44.807,20.676-44.726,45.132c0.017,0.648,1.184,290.352,1.184,290.352l88.91-0.386l-1.045-246.313l29.863-0.109
		l189.881-0.852l29.295-0.127l1.017,246.285l88.887-0.357c0,0-1.17-289.706-1.193-290.705
		c-0.094-24.562-19.995-44.495-44.578-44.374l-73.819,0.315l-6.551-0.016l-0.667-156.967l33.216-0.136l0.531,110.083l61.59-0.275
		l-0.025,0.029l139.906-0.524c18.661-0.121,33.808-15.377,33.767-34.071c-0.124-18.662-15.383-33.811-34.068-33.711l-133.625,0.566
		l-0.235-66.601c-0.24-55.83-40.341-87.228-95.006-86.974l-199.518,0.836c-54.695,0.226-94.542,32.02-94.249,87.842l0.281,66.544
		l-124.184,0.521c-18.772,0.079-33.865,15.331-33.817,34.079C142.199,556.682,157.375,571.811,176.117,571.706z"/>
	
		<rect x="397.127" y="764.18" transform="matrix(-0.0041 -1 1 -0.0041 -347.3414 1353.0885)" fill="#6C2DC7" width="205.987" height="170.656"/>
	<polygon fill="#6C2DC7" points="856.499,588.256 858.007,950.962 746.423,951.404 744.919,588.697 	"/>
</g>
</svg>
