<?xml version="1.0" encoding="utf-8"?>
<!-- Generator: Adobe Illustrator 16.0.0, SVG Export Plug-In . SVG Version: 6.00 Build 0)  -->
<svg version="1.2" baseProfile="tiny" id="Layer_1" xmlns="http://www.w3.org/2000/svg" xmlns:xlink="http://www.w3.org/1999/xlink"
	 x="0px" y="0px" width="1000px" height="1000px" viewBox="0 0 1000 1000" xml:space="preserve">
<g>
	<linearGradient id="SVGID_1_" gradientUnits="userSpaceOnUse" x1="905.9395" y1="596.4512" x2="970.2021" y2="596.4512">
		<stop  offset="0" style="stop-color:#FFFF00"/>
		<stop  offset="1" style="stop-color:#FBB03B"/>
	</linearGradient>
	<path fill="url(#SVGID_1_)" d="M959.313,192.919c-6.717,2.597-13.85,4.047-21.255,4.047s-14.552-1.451-21.242-4.047l-2.327,18.866
		h-8.549v788.198h64.263V211.785h-8.55L959.313,192.919z"/>
	<linearGradient id="SVGID_2_" gradientUnits="userSpaceOnUse" x1="119.708" y1="508.25" x2="884.9941" y2="508.25">
		<stop  offset="0" style="stop-color:#FFFF00"/>
		<stop  offset="1" style="stop-color:#FBB03B"/>
	</linearGradient>
	<path fill="url(#SVGID_2_)" d="M815.535,210l-6.236-1.402c-26.999-6.406-56.402-18.229-79.749-39.867
		c-56.714-52.614-95.393-150.847-224.723-152.104v-0.095c-0.741,0-1.495-0.032-2.223-0.032h-0.208c-0.74,0-1.494,0.032-2.248,0.032
		v0.095c-129.329,1.257-167.995,99.49-224.709,152.104c-23.335,21.654-52.737,33.461-79.749,39.867L189.466,210
		c-23.556,4.954-44.722,5.959-57.584,5.959c-6.327,0-10.576-0.225-12.174-0.32V1000h765.286V215.64
		c-1.819,0.095-5.938,0.302-11.901,0.302C860.257,215.942,839.078,214.939,815.535,210z M189.467,970.649h-46.618v-69.138h46.618
		V970.649z M189.467,872.179h-46.618V428.07h46.618V872.179z M189.467,398.752h-46.618V245.055
		c12.395-0.478,28.714-1.913,46.618-5.449V398.752z M264.474,970.649H201.42v-69.138h63.054V970.649z M264.474,872.179H201.42
		V428.07h63.054V872.179z M264.474,398.752H201.42V237.008c20.658-5.02,42.694-13.066,63.054-25.701V398.752z M426.194,61.449
		c15.891-7.283,33.78-12.476,54.726-14.579v351.882h-54.726V61.449z M339.48,970.649h-63.054v-69.138h63.054V970.649z
		 M339.48,872.179h-63.054V428.07h63.054V872.179z M339.48,398.752h-63.054V203.148c4.599-3.442,9.133-7.042,13.446-11.059
		c15.254-14.132,28.559-30.401,42.643-47.626c2.301-2.82,4.64-5.656,6.965-8.492V398.752z M414.241,970.649h-62.808v-69.138h62.808
		V970.649z M414.241,872.179h-62.808V428.07h62.808V872.179z M414.241,398.752h-62.808V121.918
		c17.994-20.811,37.627-40.44,62.808-54.495V398.752z M480.92,970.649h-54.726v-69.138h54.726V970.649z M578.808,970.649h-54.751
		v-69.138h54.751V970.649z M578.808,872.179h-54.751V693.864H480.92v178.314h-54.726V428.07h54.726v50.271h43.137V428.07h54.751
		V872.179z M578.808,398.752h-54.751V46.87c20.957,2.07,38.849,7.313,54.751,14.579V398.752z M653.541,970.649h-62.78v-69.138h62.78
		V970.649z M653.541,872.179h-62.78V428.07h62.78V872.179z M653.541,398.752h-62.78V67.423
		c25.206,14.085,44.813,33.684,62.78,54.526V398.752z M728.563,970.649h-63.041v-69.138h63.041V970.649z M728.563,872.179h-63.041
		V428.07h63.041V872.179z M728.563,398.752h-63.041v-262.78c2.326,2.836,4.664,5.671,6.965,8.508
		c14.097,17.209,27.389,33.493,42.642,47.628c4.313,3.999,8.836,7.6,13.436,11.041L728.563,398.752L728.563,398.752z
		 M803.582,970.649h-63.066v-69.138h63.066V970.649z M803.582,872.179h-63.066V428.07h63.066V872.179z M803.582,398.752h-63.066
		V211.307c20.372,12.635,42.435,20.681,63.066,25.701V398.752z M862.153,970.649h-46.618v-69.138h46.618V970.649L862.153,970.649z
		 M862.153,872.179h-46.618V428.07h46.618V872.179L862.153,872.179z M862.153,398.752h-46.618V239.621
		c17.903,3.521,34.224,4.987,46.618,5.449V398.752L862.153,398.752z"/>
	<linearGradient id="SVGID_3_" gradientUnits="userSpaceOnUse" x1="450.1016" y1="586.0146" x2="550.1982" y2="586.0146">
		<stop  offset="0" style="stop-color:#FFFF00"/>
		<stop  offset="1" style="stop-color:#FBB03B"/>
	</linearGradient>
	<path fill="url(#SVGID_3_)" d="M450.102,676.766h100.097V495.264H450.102V676.766z M500.163,541.328
		c9.522,0,17.241,9.466,17.241,21.162c0,7.487-3.196,14.054-8.004,17.813v50.414h-18.477v-50.414
		c-4.795-3.759-8.004-10.325-8.004-17.813C482.921,550.793,490.639,541.328,500.163,541.328z"/>
	<linearGradient id="SVGID_4_" gradientUnits="userSpaceOnUse" x1="891.0244" y1="138.9922" x2="985.0791" y2="138.9922">
		<stop  offset="0" style="stop-color:#FFFF00"/>
		<stop  offset="1" style="stop-color:#FBB03B"/>
	</linearGradient>
	<path fill="url(#SVGID_4_)" d="M938.058,91.959c25.959,0,47.021,21.062,47.021,47.034c0,25.972-21.063,47.033-47.021,47.033
		c-25.985,0-47.033-21.061-47.033-47.033C891.024,113.021,912.071,91.959,938.058,91.959z"/>
	<linearGradient id="SVGID_5_" gradientUnits="userSpaceOnUse" x1="29.812" y1="596.4512" x2="94.0752" y2="596.4512">
		<stop  offset="0" style="stop-color:#FFFF00"/>
		<stop  offset="1" style="stop-color:#FBB03B"/>
	</linearGradient>
	<path fill="url(#SVGID_5_)" d="M83.186,192.919c-6.704,2.597-13.837,4.047-21.256,4.047c-7.393,0-14.538-1.451-21.243-4.047
		l-2.325,18.866h-8.55v788.198h64.263V211.785h-8.55L83.186,192.919z"/>
	<linearGradient id="SVGID_6_" gradientUnits="userSpaceOnUse" x1="14.9219" y1="138.9922" x2="108.9771" y2="138.9922">
		<stop  offset="0" style="stop-color:#FFFF00"/>
		<stop  offset="1" style="stop-color:#FBB03B"/>
	</linearGradient>
	<path fill="url(#SVGID_6_)" d="M61.956,91.959c25.96,0,47.021,21.062,47.021,47.034c0,25.972-21.061,47.033-47.021,47.033
		c-25.985,0-47.034-21.061-47.034-47.033C14.922,113.021,35.971,91.959,61.956,91.959z"/>
</g>
</svg>
