<?xml version="1.0" encoding="utf-8"?>
<!-- Generator: Adobe Illustrator 16.0.0, SVG Export Plug-In . SVG Version: 6.00 Build 0)  -->
<svg version="1.2" baseProfile="tiny" id="Layer_1" xmlns="http://www.w3.org/2000/svg" xmlns:xlink="http://www.w3.org/1999/xlink"
	 x="0px" y="0px" width="1000px" height="1000px" viewBox="0 0 1000 1000" xml:space="preserve">
<g>
	<path id="path3" fill="#00BB00" d="M569.489,110.034c0,44.019-35.834,79.716-79.891,79.716c-44.128,0-79.897-35.697-79.897-79.716
		c0-44.056,35.769-79.751,79.897-79.751C533.646,30.283,569.489,65.979,569.489,110.034z"/>
	<path id="path5" fill="#00BB00" d="M481.845,208.542c-74.374,0-93.663,24.198-113.208,64.252
		c-19.546,40.028-63.574,270.948-63.574,270.948c-2.73,10.123,3.382,20.427,13.26,23.115c10.03,2.68,20.363-3.285,23.116-13.249
		l71.053-227.096l-54.058,329.762h52.019l15.977,294.743c0,10.202,8.506,18.699,18.701,18.699c10.554,0,19.034-8.497,19.034-18.699
		l15.982-294.743h17.674l17.346,294.743c0,10.202,8.423,18.699,18.69,18.699c10.343,0,18.702-8.497,18.702-18.699l15.977-294.743
		h52.012l-53.709-329.762l61.876,223.013c2.237,10.046,12.323,16.581,22.425,14.278c10.058-2.321,16.574-12.241,14.28-22.437
		c0,0-35.036-228.545-54.729-268.573c-19.618-40.054-38.962-64.252-113.548-64.252H481.845z M490.003,224.526
		c14.809,0.037,29.54,1.377,44.196,4.075l-44.535,85.33l-44.534-85.33C460.108,225.71,475.192,224.473,490.003,224.526z"/>
	<path id="path3875" fill="#00BB00" d="M642.643,538.98c-0.567,0.056-1.139,0.165-1.699,0.349c-3.823,0.809-6.541,4.241-6.447,8.15
		v24.143h-7.14c-14.261,0-25.843,23.685-25.843,53.377v141.756c0,29.707,11.582,53.72,25.843,53.72h42.146
		c14.26,0,28.126-24.106,25.839-53.72l-11.223-141.756c-2.282-29.61-11.23-53.377-25.489-53.377h-7.819v-24.143
		c0.183-4.496-3.312-8.296-7.816-8.489C642.881,538.99,642.763,538.98,642.643,538.98z"/>
</g>
</svg>
