<?xml version="1.0" encoding="utf-8"?>
<!-- Generator: Adobe Illustrator 16.0.0, SVG Export Plug-In . SVG Version: 6.00 Build 0)  -->
<svg version="1.2" baseProfile="tiny" id="Layer_1" xmlns="http://www.w3.org/2000/svg" xmlns:xlink="http://www.w3.org/1999/xlink"
	 x="0px" y="0px" width="1000px" height="1000px" viewBox="0 0 1000 1000" xml:space="preserve">
<g>
	<path id="path7" fill="#00BB00" d="M505.6,27.015c-44.45,0-80.537,35.908-80.537,80.311s36.086,80.348,80.537,80.348
		c44.289,0,80.225-35.946,80.225-80.348S549.889,27.015,505.6,27.015z"/>
	<path id="path9" fill="#00BB00" d="M497.678,206.404c-74.969,0-105.196,24.404-124.962,64.703
		c-19.617,40.228-9.583,283.459-9.583,283.459c-1.146,10.463,6.368,19.666,16.772,20.885c10.416,1.25,19.884-6.237,20.884-16.429
		l16.098-233.828l5.137,174.604l-15.413,439.569c-1.072,17.409,11.848,32.42,29.106,33.556c0.852,0.139,1.738,0,2.386,0
		c16.487,0,30.552-12.411,31.842-29.1l35.264-361.869l36.287,361.869c1.01,16.688,14.823,29.1,31.15,29.1
		c0.777,0,1.627,0.139,2.405,0c17.482-1.136,30.159-16.146,29.099-33.556l-15.407-439.569l5.474-174.604l46.904,230.056
		c2.182,10.09,12.09,16.633,22.252,14.379c10.313-2.199,16.865-12.292,14.721-22.587c0,0-19.961-235.708-39.707-275.936
		c-19.768-40.299-50.343-64.703-125.304-64.703H497.678z M505.551,224.894c17.519,0,24.998,3.077,24.998,3.077l-17.123,22.938
		c0,0,7.161,4.639,7.53,9.934c0.368,5.284-9.584,16.774-9.584,16.774l19.177,195.818l-24.998,33.893l-25.329-33.893l19.507-195.818
		c0,0-9.953-11.49-9.582-16.774c0.367-5.294,7.531-9.934,7.531-9.934l-17.456-22.938
		C480.222,227.971,488.031,224.894,505.551,224.894L505.551,224.894z"/>
	<path id="rect3037" fill="#00BB00" d="M386.078,553.553c-3.64,0.591-6.441,3.53-6.857,7.188l-4.445,24.644l-17.455,0.343
		c-14.361,0.11-23.25,24.258-25.337,54.096l-10.278,142.753c-2.087,29.834,12.004,53.854,26.364,53.75l42.452-0.339
		c14.36-0.111,25.903-24.191,25.682-54.099l-1.369-142.745c-0.213-28.039-10.507-50.755-23.629-53.416l4.114-22.252
		c0.941-4.436-1.886-8.806-6.322-9.748c-0.628-0.14-1.256-0.195-1.903-0.174C386.762,553.523,386.41,553.523,386.078,553.553z"/>
</g>
</svg>
