<?xml version="1.0" encoding="utf-8"?>
<!-- Generator: Adobe Illustrator 16.0.0, SVG Export Plug-In . SVG Version: 6.00 Build 0)  -->
<svg version="1.2" baseProfile="tiny" id="Layer_1" xmlns="http://www.w3.org/2000/svg" xmlns:xlink="http://www.w3.org/1999/xlink"
	 x="0px" y="0px" width="1000px" height="1000px" viewBox="0 0 1000 1000" xml:space="preserve">
<g>
	<path fill="#CE4E06" d="M503.154,134.989c-35.137,0-63.651,28.492-63.651,63.654c0,35.162,28.514,63.581,63.651,63.581
		c35.087,0,63.558-28.419,63.558-63.581C566.712,163.481,538.219,134.989,503.154,134.989z"/>
	<path fill="#CE4E06" d="M231.061,353.976c15.935-8.239,35.552-1.984,43.791,13.953l16.083,31.117l92.734-101.464
		c1.941-2.086,4.12-3.777,6.401-5.247c8.876-7.284,23.588-12.481,46.785-13.929h25.744v196.162h79.346V278.357l149.867,0.222
		l-66.301-118.702c-8.459-15.104-4.413-33.74,8.653-44.234L501.71,51.817c-4.979-2.402-7.063-8.385-4.66-13.339
		c2.403-4.978,8.336-7.085,13.341-4.682l160.85,77.53c0.074,0.025,0.074,0.05,0.122,0.099c6.228,2.992,11.622,7.848,15.251,14.319
		l95.433,170.88c6.081,10.836,5.932,24.102-0.369,34.817c-6.3,10.691-17.776,17.263-30.185,17.263l-123.777-0.197v126.058h49.36
		l-20.523,165.042h-60.319l-0.418,295.784h120.517v31.805H296.279v-31.83h111.544v-295.81h-58.996l-20.5-165.041h49.824V400
		l-70.687,77.285c-6.158,6.793-14.91,10.57-23.959,10.57c-1.423,0-2.846-0.097-4.267-0.27c-10.518-1.398-19.737-7.845-24.592-17.312
		l-37.515-72.482C208.892,381.832,215.12,362.215,231.061,353.976z M487.119,935.367h29.35v-295.81h-29.35V935.367z
		 M350.985,494.524l15.52,125.027h272.39l15.549-125.027H350.985z"/>
</g>
</svg>
