<?xml version="1.0" encoding="utf-8"?>
<!-- Generator: Adobe Illustrator 16.0.0, SVG Export Plug-In . SVG Version: 6.00 Build 0)  -->
<svg version="1.2" baseProfile="tiny" id="Layer_1" xmlns="http://www.w3.org/2000/svg" xmlns:xlink="http://www.w3.org/1999/xlink"
	 x="0px" y="0px" width="1000px" height="1000px" viewBox="0 0 1000 1000" xml:space="preserve">
<path fill="#DC143C" d="M407.776,359.123H392.31v268.112c-30.972,0-56.072-25.086-56.072-56.055V354.337
	c0-46.217,37.47-83.699,83.696-83.699h153.826L407.774,436.631L407.776,359.123L407.776,359.123z M634.602,290.879L407.776,517.71
	v98.625v10.901v340.856h82.058v-337.82h19.102V968.09h82.049V627.234v-10.901V361.61h15.475v265.625h1.253
	c30.952,0,56.05-25.086,56.05-56.055V354.337C663.766,328.949,652.448,306.222,634.602,290.879z M579.42,66.068L456.833,33.114
	c-17.9-4.813-36.154,5.203-40.734,22.321c-4.519,16.898,5.952,34.416,23.426,39.485l-48.914,23.526c-0.02,0-0.047,0.02-0.057,0.028
	l-0.304,0.152l0.011,0.009c-1.844,0.939-3.121,2.829-3.121,5.032c0,3.124,2.534,5.639,5.647,5.639h33.789l0,0
	c-6.543,11.925-10.272,25.625-10.272,40.197c0,46.217,37.484,83.699,83.709,83.699c46.217,0,83.68-37.464,83.68-83.699
	c0-14.602-3.736-28.331-10.306-40.284c14.013-0.616,26.467-9.703,30.151-23.43C608.131,88.654,597.345,70.864,579.42,66.068z"/>
</svg>
