<?xml version="1.0" encoding="utf-8"?>
<!-- Generator: Adobe Illustrator 16.0.0, SVG Export Plug-In . SVG Version: 6.00 Build 0)  -->
<svg version="1.2" baseProfile="tiny" id="Layer_1" xmlns="http://www.w3.org/2000/svg" xmlns:xlink="http://www.w3.org/1999/xlink"
	 x="0px" y="0px" width="1000px" height="1000px" viewBox="0 0 1000 1000" xml:space="preserve">
<g>
	<g>
		<path fill="#3366CC" d="M263.292,126.274c0,0-62.232,11.832-49.302,36.198C228.065,188.968,232.805,149.972,263.292,126.274z"/>
		<path fill="#3366CC" d="M222.892,176.931L222.892,176.931c-6.681,0-10.901-6.327-13.818-11.844
			c-3.008-5.646-3.227-11.488-0.623-16.909c8.813-18.365,49.224-26.52,53.793-27.389c2.533-0.474,5.066,0.833,6.125,3.184
			c1.065,2.356,0.373,5.13-1.663,6.717c-11.588,8.996-19.234,20.377-25.407,29.515C234.782,169.911,230.054,176.931,222.892,176.931
			z M244.305,137.164c-11.647,4.025-22.798,9.612-25.792,15.862c-1.055,2.195-0.93,4.303,0.413,6.835
			c2.118,3.99,3.492,5.35,4.049,5.784c2.024-1.196,6.071-7.21,9.079-11.673C235.387,149.025,239.364,143.112,244.305,137.164z"/>
	</g>
	<path fill="#3366CC" d="M374.973,75.034c42.813,0,77.524,39.57,77.524,88.386c0,48.808-34.712,88.386-77.524,88.386
		c-42.82,0-77.526-39.578-77.526-88.386C297.447,114.604,332.153,75.034,374.973,75.034z"/>
	<path fill="#3366CC" d="M226.271,100.02c5.161,0,11.731-1.403,19.33-3.042c13.335-2.871,30.622-6.604,49.289-4.615
		c0.242,0.022,0.474,0.035,0.71,0.022c3.336-0.117,5.687-2.463,5.687-5.575c0-2.385-1.502-4.421-3.598-5.221
		c-5.734-3.65-37.552-23.188-60.095-23.188c-12.306,0-20.764,5.913-23.824,16.654c-2.746,9.637-2.544,15.826,0.658,20.071
		C218.116,100.02,224.26,100.02,226.271,100.02z"/>
	<path fill="#3366CC" d="M451.829,92.29c0.752,0,1.515-0.159,2.231-0.474c17.151-7.468,34.476-9.09,48.402-10.399
		c14.541-1.36,25.051-2.348,28.752-10.049c3.173-6.629-0.984-14.399-4.962-20.436c-4.425-6.712-10.8-10.269-18.436-10.269
		c-24.716,0-56.729,38.144-60.291,42.488c-1.633,2.001-1.685,4.847-0.131,6.907C448.462,91.503,450.12,92.29,451.829,92.29z"/>
	<path fill="#3366CC" d="M481.438,106.388c-2.509,0.58-4.289,2.801-4.327,5.38c-0.035,2.582,1.723,4.835,4.22,5.47
		c14.229,3.573,25.818,10.918,35.127,16.809c8.05,5.088,13.866,8.777,19.313,8.777c10.87,0,11.854-13.01,12.166-17.271
		c0.422-5.563-1.2-10.5-4.68-14.232c-5.453-5.879-15.018-8.737-29.236-8.737C498.182,102.582,482.108,106.228,481.438,106.388z
		 M535.771,137.135L535.771,137.135v0.101V137.135z"/>
	<path fill="#3366CC" d="M918.582,445.179v-73.32c19.044,5.178,32.775,18.738,32.775,34.778c0,9.243,7.492,16.749,16.75,16.749
		c9.23,0,16.736-7.506,16.736-16.749c0-34.05-28.503-62.546-66.262-69.153v-22.46c0-9.25-7.48-16.736-16.739-16.736
		c-9.242,0-16.736,7.486-16.736,16.736v22.46c-37.771,6.606-66.252,35.103-66.252,69.153c0,34.061,28.481,62.54,66.252,69.143
		v73.329c-19.034-5.171-32.777-18.725-32.777-34.768c0-9.253-7.503-16.739-16.736-16.739c-9.244,0-16.738,7.486-16.738,16.739
		c0,34.048,28.481,62.539,66.252,69.143v18.087c0,9.233,7.494,16.738,16.736,16.738c9.259,0,16.739-7.505,16.739-16.738v-18.087
		c37.771-6.604,66.262-35.095,66.262-69.143C984.844,480.291,956.341,451.788,918.582,445.179z M852.319,406.638
		c0-16.041,13.716-29.6,32.775-34.778v69.547C866.049,436.235,852.319,422.668,852.319,406.638z M918.582,549.109v-69.541
		c19.044,5.173,32.775,18.739,32.775,34.773C951.347,530.385,937.626,543.938,918.582,549.109z"/>
	<path fill="#3366CC" d="M791.724,587.875c-7.775-2.484-16.192,1.02-19.942,8.276l-17.307,33.475l-178.163-46.189
		c2.657-7.278,3.072-15.009-0.095-21.874c-38.352-82.976-79.537-219.946-144.641-263.967
		c-42.364-28.658-127.004-33.203-178.158-32.789c-43.35,0.338-138.029,9.345-167.23,45.857
		c-22.567,28.224-16.483,99.049-11.14,142.793l-24.969-6.474c-14.885-3.865-30.142,5.094-34.024,20.016
		c-3.865,14.907,5.095,30.142,20.016,34.005l180.553,46.816c-2.161,17.411-3.284,32.87-2.787,44.802
		c2.291,55.303,48.472,158.521,46.241,213.833c-1.527,38.02-26.059,72.748-38.688,113.139
		c-13.068,41.817,52.265,52.257,69.245,5.218c10.955-30.35,40.63-80.536,44.447-117.587c4.167-40.458-24.088-149.689-16.713-160.295
		c14.807-21.354,107.367,102.72,111.509,149.096c3.19,35.655-25.586,92.423-33.475,128.786
		c-9.641,44.438,62.226,45.751,73.606,5.243c7.76-27.578,40.27-99.452,33.057-134.029c-11.199-53.715-83.379-141.829-98.01-190.784
		c-0.835-2.819-1.575-5.919-2.268-9.163l325.407,84.374l-24.902,48.166c-2.322,4.494-2.499,9.797-0.464,14.428
		c2.036,4.614,6.061,8.098,10.925,9.409c2.013,0.543,49.655,13.293,108.629,13.293h0.012c62.273,0,113.017-13.99,150.825-41.593
		c5.739-4.181,8.215-11.531,6.178-18.324C976.18,695.083,951.984,638.762,791.724,587.875z M419.42,393.941
		c24.97-9.914,60.907,108.496,84.374,170.688l-106.142-27.521C397.154,473.442,407.95,398.487,419.42,393.941z M140.65,357.022
		c18.045-22.117,111.461-34.084,112.781-17.743c1.226,15.066-15.896,86.433-28.06,153.158l-80.419-20.846
		C138.976,429.921,122.41,379.375,140.65,357.022z"/>
</g>
</svg>
